<svg xmlns="http://www.w3.org/2000/svg" viewBox="0 0 2616.8 702.8" enable-background="new 0 0 2616.8 702.8"><radialGradient id="a" cx="353.396" cy="275.232" r="275.232" gradientUnits="userSpaceOnUse"><stop offset="0" stop-color="#E81A4B"/><stop offset="1" stop-color="#E81A4B" stop-opacity="0"/></radialGradient><circle fill="url(#a)" cx="353.4" cy="275.2" r="275.2"/><radialGradient id="b" cx="7400.9" cy="-3800.926" r="275.241" gradientTransform="matrix(.624 -.782 .782 .624 -1353.243 8460.925)" gradientUnits="userSpaceOnUse"><stop offset="0" stop-color="#86328C"/><stop offset="1" stop-color="#86328C" stop-opacity="0"/></radialGradient><circle fill="url(#b)" cx="290.8" cy="305.4" r="275.2"/><radialGradient id="c" cx="14981.717" cy="-833.912" r="275.233" gradientTransform="matrix(-.222 -.975 .975 -.222 4417.294 14795.019)" gradientUnits="userSpaceOnUse"><stop offset="0" stop-color="#46408A"/><stop offset="1" stop-color="#46408A" stop-opacity="0"/></radialGradient><circle fill="url(#c)" cx="275.3" cy="373.1" r="275.2"/><radialGradient id="d" cx="17389.037" cy="6943.114" r="275.223" gradientTransform="matrix(-.901 -.434 .434 -.901 12967.256 14233.913)" gradientUnits="userSpaceOnUse"><stop offset="0" stop-color="#00B7C3"/><stop offset="1" stop-color="#00B7C3" stop-opacity="0"/></radialGradient><circle fill="url(#d)" cx="318.6" cy="427.5" r="275.2"/><radialGradient id="e" cx="12812.848" cy="13675.747" r="275.244" gradientTransform="matrix(-.901 .433 -.433 -.901 17860.75 7200.311)" gradientUnits="userSpaceOnUse"><stop offset="0" stop-color="#399F49"/><stop offset="1" stop-color="#399F49" stop-opacity="0"/></radialGradient><circle fill="url(#e)" cx="388.1" cy="427.5" r="275.2"/><radialGradient id="f" cx="4694.68" cy="14293.832" r="275.219" gradientTransform="matrix(-.223 .975 -.975 -.223 15413.431 -1011.337)" gradientUnits="userSpaceOnUse"><stop offset="0" stop-color="#fd0"/><stop offset="1" stop-color="#fd0" stop-opacity="0"/></radialGradient><path fill="url(#f)" d="M370 641.5c-148.2-33.9-240.8-181.6-206.8-329.7C197.1 163.6 344.8 71 492.9 104.9c148.2 33.9 240.8 181.6 206.8 329.7C665.8 582.8 518.2 675.4 370 641.5z"/><radialGradient id="g" cx="-852.119" cy="8335.339" r="275.228" gradientTransform="matrix(.623 .782 -.782 .623 7468.34 -4219.102)" gradientUnits="userSpaceOnUse"><stop offset="0" stop-color="#F18C21"/><stop offset="1" stop-color="#F18C21" stop-opacity="0"/></radialGradient><path fill="url(#g)" d="M587.5 520.8c-118.9 94.7-292.1 75-386.7-43.9-94.7-118.9-75-292.1 43.9-386.8 118.9-94.7 292.1-75 386.7 43.9 94.7 119 75 292.1-43.9 386.8z"/><circle fill="#fff" cx="353.4" cy="355.3" r="170"/><g fill="#fff"><path d="M1001.4 276.1c44.7 0 79.2 37.8 79.2 79.2 0 41.1-33.9 79.2-79.2 79.2-44.1 0-78.6-37.2-78.6-78.1 0-47.7 38.9-80.3 78.6-80.3zm.3 141c29.2 0 59.6-23.2 59.6-62.6 0-39.7-33.7-61-59.6-61-27.6 0-59.6 22.6-59.6 62.6 0 35.1 28.4 61 59.6 61zM1118.8 280h19.3v17.4l-.6-.6v.6h.6c8.5-14.9 27-21.2 41.1-21.2 12.7 0 39.5 5.8 50.8 29 11.3-23.2 38.1-29 50.8-29 23.2 0 60.4 13.8 60.4 65.1V431h-19.3v-87.5c0-16.6-3-24.6-6.9-31.5-6.3-10.8-17.9-18.5-34.2-18.5-16.3 0-27.9 7.7-34.2 18.5-3.9 6.9-6.9 14.9-6.9 31.5V431h-19.3v-87.5c0-16.6-3-24.6-6.9-31.5-6.3-10.8-17.9-18.5-34.2-18.5-16.3 0-27.9 7.7-34.2 18.5-3.9 6.9-6.9 14.9-6.9 31.5V431h-19.3V280zM1514.1 430.9h-18.2v-23.5h-.6c-5.5 11.3-20.1 27-48.3 27-29.8 0-45.2-14.4-51.9-22.6-10.8-13.2-13.2-32.6-13.2-48.6V280h19.3v83c0 19 4.1 31.5 10.8 39.7 10.5 11.9 24.6 14.3 35 14.3 10.8 0 22.3-2.5 32-12.1 8.8-8.8 15.7-18.8 15.7-45.3V280h19.3v150.9zM1708.4 386.5c-9.7 18.8-29.8 48-75 48-47.2 0-81.1-36.7-81.1-78.9 0-43.6 36.1-79.5 81.1-79.5 26.5 0 60.4 13.2 75 49.4h-21.2c-12.1-22.9-34.2-32-53.3-32-29.5 0-62.3 22.1-62.3 61.5 0 33.9 26.2 62.1 62.3 62.1 31.5 0 47.2-19 53.3-30.6h21.2zM1746.6 226.7h19.3v72.6h.5c5.8-9.1 20.7-23.2 46.4-23.2 18.5 0 33.9 4.7 47.7 18.5 11.3 11 18.8 28.4 18.8 53.2v83.1H1860v-83.1c0-19.6-6.1-33.4-14.3-41.4-10.5-10.2-24.3-13-32.8-13-8.5 0-22.4 2.7-32.8 13-8.3 8-14.4 21.8-14.1 41.4v83.1h-19.3V226.7zM1927.7 280h19.3v17.4l-.6-.6v.6h.6c8.6-14.9 27-21.2 41.1-21.2 12.7 0 39.5 5.8 50.8 29 11.3-23.2 38.1-29 50.8-29 23.2 0 60.4 13.8 60.4 65.1V431h-19.3v-87.5c0-16.6-3-24.6-6.9-31.5-6.3-10.8-17.9-18.5-34.2-18.5-16.3 0-27.9 7.7-34.2 18.5-3.9 6.9-6.9 14.9-6.9 31.5V431h-19.3v-87.5c0-16.6-3-24.6-6.9-31.5-6.3-10.8-17.9-18.5-34.2-18.5-16.3 0-27.8 7.7-34.2 18.5-3.9 6.9-6.9 14.9-6.9 31.5V431h-19.3V280zM2264.3 276.1c44.7 0 79.2 37.8 79.2 79.2 0 41.1-33.9 79.2-79.2 79.2-44.1 0-78.6-37.2-78.6-78.1 0-47.7 38.9-80.3 78.6-80.3zm.3 141c29.3 0 59.6-23.2 59.6-62.6 0-39.7-33.7-61-59.6-61-27.6 0-59.6 22.6-59.6 62.6 0 35.1 28.4 61 59.6 61zM2379.2 280h19.3v21.8h.6c9.1-21.2 26.2-24.6 42.5-25.7v20.4c-13.5 1.1-25.1 6.1-32.6 14.9-6.6 8.3-10.5 19-10.5 31.2v88.3h-19.3V280zM2479.2 362.5c1.4 29.5 29 54.6 58.5 54.6 27.6-.5 47.2-16.8 54.1-35.6h20.4c-10.5 30.1-39.5 53-74.2 53-42.2 0-78.6-34.2-78.6-78.9 0-42.8 34.5-78.6 78.4-79.5 33.1.3 56.6 19.9 67.3 38.6 10.2 16.3 12.4 33.1 11.6 47.7h-137.5zm117.8-17.4c-6.1-35.6-35-51.6-59-51.6-23.7 0-53.2 16-58.8 51.6H2597zM869.5 312.6s1.4 3.1 1.9 6.8h18.8c-.6-13.1-7.2-21.4-7.2-21.4-9.7-13.6-28.8-22.3-52.3-22.3-34.3 0-59.2 18.4-59.2 43.7 0 30.1 29.9 36.3 54 41.2l2.8.6c30.2 5.7 47.8 12.2 47.8 28.1 0 16-17.5 26.8-43.7 26.8-26.1 0-43.7-10.7-43.7-26.8v-3.6h-18.8v3.6c0 27.3 25.1 45.6 62.5 45.6s62.5-18.3 62.5-45.6c0-34.7-39.5-42.1-62.9-46.6l-2.6-.5c-26.5-5.5-38.9-9.5-38.9-22.8 0-14.4 16.9-24.9 40.3-24.9 19.3 0 34.3 7.4 38.7 18.1z"/></g></svg>