<svg xmlns="http://www.w3.org/2000/svg" width="186.16" height="50" viewBox="0 0 186.16 50"><g fill="#fff"><path d="M71.24 19.642c3.18 0 5.635 2.688 5.635 5.633 0 2.925-2.415 5.634-5.634 5.634-3.14 0-5.592-2.65-5.592-5.556 0-3.396 2.768-5.712 5.593-5.712zm.02 10.03c2.082 0 4.24-1.648 4.24-4.457 0-2.827-2.394-4.338-4.24-4.338-1.962 0-4.238 1.61-4.238 4.456 0 2.494 2.02 4.338 4.24 4.338zM79.592 19.917h1.374v1.236l-.04-.04v.04h.04c.608-1.06 1.923-1.51 2.924-1.51.903 0 2.807.41 3.612 2.06.805-1.65 2.708-2.06 3.61-2.06 1.65 0 4.3.98 4.3 4.632v6.378h-1.375V24.43c0-1.178-.215-1.746-.49-2.237-.45-.766-1.275-1.315-2.434-1.315-1.158 0-1.982.55-2.434 1.315-.275.49-.49 1.06-.49 2.238v6.223h-1.375V24.43c0-1.178-.216-1.746-.492-2.237-.45-.766-1.275-1.315-2.434-1.315s-1.984.55-2.435 1.315c-.275.49-.49 1.06-.49 2.238v6.223H79.59V19.917zM107.712 30.653h-1.295v-1.668h-.04c-.392.805-1.433 1.924-3.435 1.924-2.12 0-3.22-1.022-3.69-1.61-.766-.943-.942-2.316-.942-3.456v-5.927h1.374v5.908c0 1.355.294 2.24.767 2.827.746.845 1.747 1.02 2.493 1.02.766 0 1.59-.175 2.277-.862.627-.628 1.118-1.335 1.118-3.22v-5.67h1.374v10.733zM121.538 27.493c-.688 1.335-2.12 3.416-5.34 3.416-3.355 0-5.77-2.612-5.77-5.616 0-3.1 2.57-5.652 5.77-5.652 1.887 0 4.3.942 5.34 3.513h-1.51c-.865-1.628-2.436-2.277-3.79-2.277-2.1 0-4.436 1.57-4.436 4.377 0 2.415 1.864 4.417 4.436 4.417 2.24 0 3.357-1.354 3.79-2.18h1.51zM124.255 16.128h1.374v5.163h.037c.414-.647 1.473-1.648 3.3-1.648 1.314 0 2.413.334 3.395 1.316.806.784 1.335 2.02 1.335 3.788v5.907h-1.373v-5.907c0-1.395-.433-2.376-1.02-2.945-.746-.726-1.73-.922-2.337-.922-.607 0-1.59.196-2.336.923-.588.57-1.02 1.55-1 2.946v5.907h-1.374V16.128zM137.138 19.917h1.374v1.236l-.04-.04v.04h.04c.608-1.06 1.923-1.51 2.924-1.51.903 0 2.808.41 3.612 2.06.805-1.65 2.71-2.06 3.61-2.06 1.65 0 4.3.98 4.3 4.632v6.378h-1.373V24.43c0-1.178-.217-1.746-.49-2.237-.453-.766-1.277-1.315-2.436-1.315-1.158 0-1.983.55-2.435 1.315-.275.49-.49 1.06-.49 2.238v6.223h-1.374V24.43c0-1.178-.216-1.746-.49-2.237-.45-.766-1.275-1.315-2.435-1.315-1.158 0-1.98.55-2.434 1.315-.273.49-.49 1.06-.49 2.238v6.223h-1.373V19.917zM161.088 19.642c3.18 0 5.634 2.688 5.634 5.633 0 2.925-2.415 5.634-5.634 5.634-3.14 0-5.595-2.65-5.595-5.556 0-3.396 2.768-5.712 5.595-5.712zm.02 10.03c2.08 0 4.24-1.648 4.24-4.457 0-2.827-2.396-4.338-4.24-4.338-1.964 0-4.24 1.61-4.24 4.456 0 2.494 2.022 4.338 4.24 4.338zM169.257 19.917h1.373v1.55h.04c.647-1.51 1.864-1.747 3.023-1.825v1.452c-.962.078-1.788.433-2.316 1.06-.472.59-.747 1.355-.747 2.218v6.28h-1.373V19.918zM176.374 25.785c.098 2.1 2.06 3.886 4.16 3.886 1.963-.037 3.357-1.197 3.848-2.53h1.453c-.745 2.14-2.807 3.77-5.28 3.77-3.003 0-5.595-2.437-5.595-5.616 0-3.042 2.455-5.594 5.575-5.652 2.355.02 4.024 1.414 4.79 2.748.727 1.158.883 2.356.823 3.396h-9.774zm8.38-1.236c-.43-2.534-2.49-3.672-4.2-3.672-1.688 0-3.787 1.138-4.18 3.67h8.38zM61.858 22.24s.1.224.13.484h1.336c-.04-.933-.516-1.524-.516-1.524-.688-.97-2.046-1.586-3.72-1.586-2.44 0-4.21 1.31-4.21 3.11 0 2.14 2.13 2.58 3.842 2.934l.197.04c2.15.408 3.398.865 3.398 2 0 1.14-1.25 1.904-3.106 1.904-1.86 0-3.11-.764-3.11-1.903v-.257h-1.34v.256c0 1.94 1.788 3.244 4.45 3.244 2.66 0 4.445-1.305 4.445-3.245 0-2.47-2.81-3-4.477-3.315l-.188-.04c-1.883-.39-2.77-.676-2.77-1.62 0-1.026 1.204-1.772 2.866-1.772 1.39 0 2.456.52 2.772 1.288z"/></g><radialGradient id="a" cx="25.141" cy="19.58" r="19.58" gradientUnits="userSpaceOnUse"><stop offset="0" stop-color="#f00"/><stop offset="1" stop-color="#f00" stop-opacity="0"/></radialGradient><circle fill="url(#a)" cx="25.141" cy="19.58" r="19.581"/><radialGradient id="b" cx="565.894" cy="-1101.171" r="19.58" gradientTransform="matrix(.624 -.782 .782 .624 528.58 1150.773)" gradientUnits="userSpaceOnUse"><stop offset="0" stop-color="#86008C"/><stop offset="1" stop-color="#86008C" stop-opacity="0"/></radialGradient><circle fill="url(#b)" cx="20.686" cy="21.724" r="19.58"/><radialGradient id="c" cx="1778.824" cy="-1378.1" r="19.58" gradientTransform="matrix(-.222 -.975 .975 -.222 1758.487 1454.686)" gradientUnits="userSpaceOnUse"><stop offset="0" stop-color="#46008A"/><stop offset="1" stop-color="#46008A" stop-opacity="0"/></radialGradient><circle fill="url(#c)" cx="19.584" cy="26.545" r="19.58"/><radialGradient id="d" cx="2751.026" cy="-602.128" r="19.58" gradientTransform="matrix(-.901 -.434 .434 -.901 2762.295 682.786)" gradientUnits="userSpaceOnUse"><stop offset="0" stop-color="#00B7FF"/><stop offset="1" stop-color="#00B7FF" stop-opacity="0"/></radialGradient><circle fill="url(#d)" cx="22.666" cy="30.412" r="19.581"/><radialGradient id="e" cx="2752.12" cy="642.45" r="19.582" gradientTransform="matrix(-.901 .433 -.433 -.901 2786.196 -583.103)" gradientUnits="userSpaceOnUse"><stop offset="0" stop-color="#39D649"/><stop offset="1" stop-color="#39CF49" stop-opacity="0"/></radialGradient><circle fill="url(#e)" cx="27.61" cy="30.415" r="19.58"/><radialGradient id="f" cx="1778.628" cy="1417.467" r="19.58" gradientTransform="matrix(-.223 .975 -.975 -.223 1809.611 -1390.735)" gradientUnits="userSpaceOnUse"><stop offset="0" stop-color="#ff0"/><stop offset="1" stop-color="#ff0" stop-opacity="0"/></radialGradient><circle fill="url(#f)" cx="30.696" cy="26.551" r="19.58"/><radialGradient id="g" cx="565.395" cy="1141.766" r="19.58" gradientTransform="matrix(.623 .782 -.782 .623 570.789 -1131.726)" gradientUnits="userSpaceOnUse"><stop offset="0" stop-color="#FF8C00"/><stop offset="1" stop-color="#FF8C00" stop-opacity="0"/></radialGradient><circle fill="url(#g)" cx="29.6" cy="21.729" r="19.581"/><circle fill="#fff" cx="25.141" cy="25.279" r="12.094"/></svg>