<?xml version="1.0" encoding="utf-8"?>
<!-- Generator: Adobe Illustrator 18.1.0, SVG Export Plug-In . SVG Version: 6.00 Build 0)  -->
<svg version="1.1" id="Layer_1" xmlns="http://www.w3.org/2000/svg" xmlns:xlink="http://www.w3.org/1999/xlink" x="0px" y="0px"
	 viewBox="0 0 150 150" enable-background="new 0 0 150 150" xml:space="preserve">
<g>
	<g>
		<path fill="#FFFFFF" d="M75,2c40.3,0,73,32.7,73,73s-32.7,73-73,73S2,115.3,2,75S34.7,2,75,2 M75,0C33.6,0,0,33.6,0,75
			c0,41.4,33.6,75,75,75s75-33.6,75-75C150,33.6,116.4,0,75,0L75,0z"/>
	</g>
</g>
<g>
	<path fill="#FFFFFF" d="M78,47.7c7.3,0,14.1,2.3,19.3,7.5c1,1,1,2.8,0,3.8c-0.6,0.6-1.3,0.8-2,0.8c-0.6,0-1.3-0.2-1.8-0.7
		C89.4,55,83.9,53,78,53c-9.2,0-17.2,5.9-20.4,14.4h24c1.5,0,2.7,1.2,2.7,2.7c0,1.5-1.2,2.7-2.7,2.7H56.2c-0.1,0-0.2,1.8-0.2,2.8
		c0,0.9,0.1,1.5,0.2,2.5h25.4c1.5,0,2.7,1.2,2.7,2.7c0,1.5-1.2,2.7-2.7,2.7H57.5C60.7,90.8,68.6,97,78,97c5.9,0,11.4-2.8,15.5-7
		c0.5-0.5,1.2-0.8,1.9-0.8s1.4,0.3,1.9,0.8c1,1,1,3,0,4c-5.2,5.2-12,8.3-19.3,8.3c-12.3,0-22.7-8.3-26.1-18.9h-3.3
		c-1.5,0-2.7-1.2-2.7-2.7c0-1.5,1.2-2.7,2.7-2.7h2.2c-0.1-1.1-0.1-1.7-0.1-2.5c0-0.9,0-2.8,0.1-2.8h-2.2c-1.5,0-2.7-1.2-2.7-2.7
		c0-1.5,1.2-2.7,2.7-2.7h3.3C55.4,55.7,65.8,47.7,78,47.7 M78,45.7c-12.5,0-23.4,7.8-27.5,19.7h-1.9c-2.6,0-4.7,2.1-4.7,4.7
		c0,2.6,2.1,4.7,4.7,4.7h0.1c0,0.3,0,0.5,0,0.8c0,0.2,0,0.4,0,0.5h-0.1c-2.6,0-4.7,2.1-4.7,4.7c0,2.6,2.1,4.7,4.7,4.7h1.8
		c4.2,11.2,15.3,18.9,27.6,18.9c7.7,0,15-3.1,20.7-8.8c0.9-0.9,1.4-2.1,1.4-3.4c0-1.3-0.5-2.6-1.4-3.4c-0.9-0.9-2-1.4-3.3-1.4
		s-2.4,0.5-3.3,1.4C88,92.7,83,95,78,95c-6.8,0-13.5-3.8-17.2-9.6h20.8c2.6,0,4.7-2.1,4.7-4.7c0-2.6-2.1-4.7-4.7-4.7H58
		c0-0.2,0-0.3,0-0.5c0-0.2,0-0.5,0-0.8h23.6c2.6,0,4.7-2.1,4.7-4.7c0-2.6-2.1-4.7-4.7-4.7H60.7C64.2,59,70.7,55,78,55
		c5.6,0,10.5,1.9,14.1,5.6c0.8,0.8,2,1.3,3.2,1.3c1.3,0,2.5-0.5,3.4-1.4c0.9-0.9,1.4-2.1,1.4-3.3c0-1.3-0.5-2.5-1.4-3.3
		C93.4,48.5,86.3,45.7,78,45.7L78,45.7z"/>
</g>
<line fill="none" stroke="#FFFFFF" stroke-width="2" stroke-miterlimit="10" x1="52.8" y1="97.6" x2="22.9" y2="127.6"/>
<line fill="none" stroke="#FFFFFF" stroke-width="2" stroke-miterlimit="10" x1="127.8" y1="22.7" x2="101.2" y2="49.3"/>
</svg>
