<?xml version="1.0" encoding="utf-8"?>
<!-- Generator: Adobe Illustrator 18.1.0, SVG Export Plug-In . SVG Version: 6.00 Build 0)  -->
<svg version="1.1" id="Layer_1" xmlns="http://www.w3.org/2000/svg" xmlns:xlink="http://www.w3.org/1999/xlink" x="0px" y="0px"
	 viewBox="0 0 150 150" enable-background="new 0 0 150 150" xml:space="preserve">
<g>
	<path fill="none" stroke="#FFFFFF" stroke-width="2" stroke-miterlimit="10" d="M102.9,48.9c1.8,0.8,3,2.5,3,4.5v49.4
		c0,2.7-2.2,4.9-4.9,4.9H51.6c-2,0-3.7-1.2-4.5-2.9"/>
	<line fill="none" stroke="#FFFFFF" stroke-width="2" stroke-miterlimit="10" x1="73.7" y1="100.9" x2="73.7" y2="50.3"/>
	<line fill="none" stroke="#FFFFFF" stroke-width="2" stroke-miterlimit="10" x1="99" y1="75.6" x2="48.4" y2="75.6"/>
	<g>
		<path fill="#FFFFFF" d="M64.5,58l-8.2,8.2L52,61.8l1.4-1.4l2.9,2.9l6.8-6.8L64.5,58z"/>
	</g>
	<g>
		<path fill="#FFFFFF" d="M95.4,58l-8.2,8.2l-4.4-4.4l1.4-1.4l2.9,2.9l6.8-6.8L95.4,58z"/>
	</g>
	<g>
		<path fill="#FFFFFF" d="M64.5,87.6l-8.2,8.2L52,91.4l1.4-1.4l2.9,2.9l6.8-6.8L64.5,87.6z"/>
	</g>
	<path fill="none" stroke="#FFFFFF" stroke-width="2" stroke-miterlimit="10" d="M51.5,42.3c0-1.5,1-2.8,2.6-2.8s2.6,1.2,2.6,2.8V46
		c0,1.5-1,2.8-2.6,2.8s-2.7-1.2-2.7-2.8L51.5,42.3z"/>
	<g>
		<path fill="#FFFFFF" d="M86.4,48c0.9,2.9,3.6,5,6.8,5c3.1,0,5.7-2,6.7-4.8c0.9,0.5,1.5,1.5,1.5,2.6v49.4c0,1.6-1.3,2.9-2.9,2.9H49
			c-1.6,0-2.9-1.3-2.9-2.9V50.9c0-1,0.5-1.9,1.3-2.5c1,2.7,3.6,4.7,6.6,4.7c3.2,0,5.9-2.1,6.8-5H86.4 M98.4,45.9L98.2,46
			c0,2.8-2.3,5-5,5c-2.8,0-5-2.3-5-5H59.1c0,2.8-2.3,5-5,5s-5-2.3-5-5v-0.1c-2.7,0-4.9,2.2-4.9,4.9v49.4c0,2.7,2.2,4.9,4.9,4.9h49.4
			c2.7,0,4.9-2.2,4.9-4.9V50.9C103.3,48.2,101.1,45.9,98.4,45.9L98.4,45.9z"/>
	</g>
	<path fill="none" stroke="#FFFFFF" stroke-width="2" stroke-miterlimit="10" d="M90.7,42.3c0-1.5,1-2.8,2.6-2.8s2.6,1.2,2.6,2.8V46
		c0,1.5-1,2.8-2.6,2.8s-2.7-1.2-2.7-2.8L90.7,42.3z"/>
</g>
<g>
	<g>
		<path fill="#FFFFFF" d="M75,2c40.3,0,73,32.7,73,73s-32.7,73-73,73c-40.3,0-73-32.7-73-73S34.7,2,75,2 M75,0C33.6,0,0,33.6,0,75
			c0,41.4,33.6,75,75,75s75-33.6,75-75C150,33.6,116.4,0,75,0L75,0z"/>
	</g>
</g>
<polygon fill="#FFFFFF" points="83.2,85.7 84.8,84.1 88.7,88.1 92.7,84.1 94.3,85.7 90.3,89.6 94.3,93.6 92.7,95.2 88.7,91.2 
	84.8,95.2 83.2,93.6 87.2,89.6 "/>
</svg>
