<?xml version="1.0" encoding="utf-8"?>
<!-- Generator: Adobe Illustrator 18.1.0, SVG Export Plug-In . SVG Version: 6.00 Build 0)  -->
<svg version="1.1" id="Layer_1" xmlns="http://www.w3.org/2000/svg" xmlns:xlink="http://www.w3.org/1999/xlink" x="0px" y="0px"
	 viewBox="0 0 150 150" enable-background="new 0 0 150 150" xml:space="preserve">
<g>
	<g>
		<path fill="#FFFFFF" d="M75,2c40.3,0,73,32.7,73,73s-32.7,73-73,73S2,115.3,2,75S34.7,2,75,2 M75,0C33.6,0,0,33.6,0,75
			c0,41.4,33.6,75,75,75s75-33.6,75-75C150,33.6,116.4,0,75,0L75,0z"/>
	</g>
</g>
<g>
	<g>
		<g>
			<path fill="#FFFFFF" d="M88.6,53c8.6,0,13.6,4.8,13.6,13.2c0,6.2-5.2,11.6-6.8,13.1l-0.1,0.1L75,99c0,0,0,0,0,0l0,0L54.6,79.4
				c0,0-0.1-0.1-0.1-0.1c-0.1-0.1-6.7-6.1-6.7-13.1c0-8.4,4.9-13.2,13.6-13.2c4.9,0,9.8,4,12.2,6.5C74,59.8,74.5,60,75,60
				s1-0.2,1.4-0.6C78.8,57,83.7,53,88.6,53 M88.6,51c-5.7,0-11,4.5-13.6,7c-2.6-2.5-7.9-7-13.6-7c-9.7,0-15.6,5.7-15.6,15.2
				c0,7.8,7.2,14.4,7.4,14.6l20.3,19.6c0.4,0.4,0.9,0.6,1.4,0.6s1-0.2,1.4-0.6l20.3-19.5c0.3-0.3,7.5-6.8,7.5-14.6
				C104.2,56.7,98.3,51,88.6,51L88.6,51z"/>
		</g>
	</g>
</g>
</svg>
