<?xml version="1.0" encoding="utf-8"?>
<!-- Generator: Adobe Illustrator 18.1.0, SVG Export Plug-In . SVG Version: 6.00 Build 0)  -->
<svg version="1.1" id="Layer_1" xmlns="http://www.w3.org/2000/svg" xmlns:xlink="http://www.w3.org/1999/xlink" x="0px" y="0px"
	 viewBox="0 0 150 150" enable-background="new 0 0 150 150" xml:space="preserve">
<g>
	<g>
		<path fill="#FF6A4C" d="M75,2c40.3,0,73,32.7,73,73s-32.7,73-73,73S2,115.3,2,75S34.7,2,75,2 M75,0C33.6,0,0,33.6,0,75
			c0,41.4,33.6,75,75,75s75-33.6,75-75C150,33.6,116.4,0,75,0L75,0z"/>
	</g>
</g>
<g>
	<g>
		<g>
			<path fill="none" stroke="#FF6A4C" stroke-width="2" stroke-linecap="round" stroke-linejoin="round" stroke-miterlimit="10" d="
				M97.5,61.9H63c-1.2,0-2.2-1.3-2.2-2.5c0-1.2,1-2.5,2.2-2.5h34.6c1.2,0,2.2,1.3,2.2,2.5C99.7,60.6,98.7,61.9,97.5,61.9z"/>
		</g>
		
			<polyline fill="none" stroke="#FF6A4C" stroke-width="2" stroke-linecap="round" stroke-linejoin="round" stroke-miterlimit="10" points="
			44.3,58.4 47.7,61.9 55.9,53.6 		"/>
	</g>
	<g>
		<g>
			<path fill="none" stroke="#FF6A4C" stroke-width="2" stroke-linecap="round" stroke-linejoin="round" stroke-miterlimit="10" d="
				M97.5,78.9H63c-1.2,0-2.2-1.3-2.2-2.5c0-1.2,1-2.5,2.2-2.5h34.6c1.2,0,2.2,1.3,2.2,2.5C99.7,77.6,98.7,78.9,97.5,78.9z"/>
		</g>
		
			<polyline fill="none" stroke="#FF6A4C" stroke-width="2" stroke-linecap="round" stroke-linejoin="round" stroke-miterlimit="10" points="
			44.3,75.7 47.7,79.1 55.9,70.9 		"/>
	</g>
	<g>
		<g>
			<path fill="none" stroke="#FF6A4C" stroke-width="2" stroke-linecap="round" stroke-linejoin="round" stroke-miterlimit="10" d="
				M97.5,95.9H63c-1.2,0-2.2-1.3-2.2-2.5c0-1.2,1-2.5,2.2-2.5h34.6c1.2,0,2.2,1.3,2.2,2.5C99.7,94.6,98.7,95.9,97.5,95.9z"/>
		</g>
		
			<polyline fill="none" stroke="#FF6A4C" stroke-width="2" stroke-linecap="round" stroke-linejoin="round" stroke-miterlimit="10" points="
			44.3,92.7 47.7,96.1 55.9,87.9 		"/>
	</g>
</g>
</svg>
