<?xml version="1.0" encoding="utf-8"?>
<!-- Generator: Adobe Illustrator 18.0.0, SVG Export Plug-In . SVG Version: 6.00 Build 0)  -->
<!DOCTYPE svg PUBLIC "-//W3C//DTD SVG 1.1//EN" "http://www.w3.org/Graphics/SVG/1.1/DTD/svg11.dtd">
<svg version="1.1" id="Layer_1" xmlns="http://www.w3.org/2000/svg" xmlns:xlink="http://www.w3.org/1999/xlink" x="0px" y="0px"
	 viewBox="0 0 150 150" enable-background="new 0 0 150 150" xml:space="preserve">
<g>
	<g>
		<path fill="#47CFC1" d="M75,2c40.3,0,73,32.7,73,73s-32.7,73-73,73S2,115.3,2,75S34.7,2,75,2 M75,0C33.6,0,0,33.6,0,75
			c0,41.4,33.6,75,75,75s75-33.6,75-75C150,33.6,116.4,0,75,0L75,0z"/>
	</g>
</g>
<path fill="none" stroke="#47CFC1" stroke-width="2" stroke-linecap="round" stroke-linejoin="round" stroke-miterlimit="10" d="
	M75,75c0,0-9-11.3-19.2-15.1c-1.8-0.8-3.7-1.2-5.7-1.3c-0.2,0-0.4,0-0.7,0C40.4,58.6,33,65.9,33,75s7.4,16.4,16.4,16.4
	c0.2,0,0.4,0,0.7,0c2-0.1,4-0.5,5.7-1.3C66,86.3,75,75,75,75z"/>
<path fill="none" stroke="#47CFC1" stroke-width="2" stroke-linecap="round" stroke-linejoin="round" stroke-miterlimit="10" d="
	M75,75c0,0,9-11.3,19.2-15.1c1.8-0.8,3.7-1.2,5.7-1.3c0.2,0,0.4,0,0.7,0c9.1,0,16.4,7.4,16.4,16.4s-7.4,16.4-16.4,16.4
	c-0.2,0-0.4,0-0.7,0c-2-0.1-4-0.5-5.7-1.3C84,86.3,75,75,75,75z"/>
</svg>
