<?xml version="1.0" encoding="utf-8"?>
<!-- Generator: Adobe Illustrator 18.1.0, SVG Export Plug-In . SVG Version: 6.00 Build 0)  -->
<svg version="1.1" id="Layer_1" xmlns="http://www.w3.org/2000/svg" xmlns:xlink="http://www.w3.org/1999/xlink" x="0px" y="0px"
	 viewBox="0 0 150 150" enable-background="new 0 0 150 150" xml:space="preserve">
<g>
	<g>
		<path fill="#FF6A4C" d="M75,2c40.3,0,73,32.7,73,73s-32.7,73-73,73S2,115.3,2,75S34.7,2,75,2 M75,0C33.6,0,0,33.6,0,75
			c0,41.4,33.6,75,75,75s75-33.6,75-75C150,33.6,116.4,0,75,0L75,0z"/>
	</g>
</g>
<g>
	<path fill="#FF6A4C" d="M75.1,39c2.2,0,4.3,0.8,5.4,2.4c1.6,2.3,1.5,5.7,0.8,8.3c0.2-0.1,0.3-0.1,0.4-0.1c0.1,0,0.2,0,0.3,0.1
		c0.8,0.5-0.3,1.8-0.6,2.4c-0.3,0.7-0.2,2.2-0.8,2.6c-0.1,0-0.1,0-0.2,0c-0.2,0-0.4-0.1-0.5-0.5c0,0,0,0,0,0.1
		c0,1.6-0.7,4.6,0.9,5.5c3.4,1.9,8.3,1.8,9.3,5.6c0.9,3.1,1,7.3,1.5,11.1c0.5,4.1,0.3,4.8,1.5,6.5c3.7,5.2,4.7,9.2,7.3,11.5
		c1.4,0.1,1.8,0.2,2.7,1.1c0.3,0.1,0.6,0.1,0.9,0.2c0.2,0,0.3,0.1,0.4,0.2c0.1,0.2,0,0.5,0.1,0.7c0.5,0.6,1.3,2.8,0.4,3.2
		c0,0-0.1,0-0.1,0c-0.2,0-0.4-0.1-0.6-0.2c0,0.6-0.3,0.9-0.7,0.9c-0.2,0-0.4-0.1-0.7-0.2c-0.3,0.2-0.6,0.4-0.9,0.4c0,0-0.1,0-0.1,0
		c0.6,3.3-1.3,5.3-3.9,6.5c-2,1-4.7,1.8-7.1,1.8c-0.5,0-0.9,0-1.4-0.1c-0.1,0-0.2,0-0.3,0c-1.9,0-3.8-0.3-5.6-0.8
		c-2.9-0.7-5.7-1.8-8.6-2.5c-2.9,0.7-5.7,1.7-8.6,2.5c-1.8,0.5-3.6,0.8-5.6,0.8c-0.1,0-0.2,0-0.3,0c-0.4,0.1-0.9,0.1-1.4,0.1
		c-2.4,0-5.1-0.8-7.1-1.8c-2.6-1.3-4.5-3.3-3.9-6.5c0,0-0.1,0-0.1,0c-0.3,0-0.6-0.1-0.9-0.4c-0.2,0.2-0.5,0.2-0.7,0.2
		c-0.4,0-0.6-0.3-0.7-0.9c-0.2,0.1-0.4,0.2-0.6,0.2c0,0-0.1,0-0.1,0c-1-0.5-0.2-2.7,0.4-3.2c0.1-0.2,0-0.5,0.1-0.7
		c0.1-0.1,0.2-0.2,0.4-0.2c0.3-0.1,0.6-0.1,0.9-0.2c1-0.9,1.3-1,2.7-1.1c2.6-2.3,3.6-6.3,7.3-11.5c1.2-1.7,0.9-2.3,1.5-6.5
		c0.5-3.7,0.6-8,1.5-11.1c1-3.9,5.9-3.7,9.3-5.6c1.2-0.7,1-4,1.1-5.5c0,0,0,0,0-0.1c-0.2,0.3-0.4,0.5-0.5,0.5c-0.1,0-0.1,0-0.2,0
		c-0.6-0.3-0.6-1.9-0.8-2.6c-0.2-0.6-1.3-1.9-0.6-2.4c0.1-0.1,0.2-0.1,0.3-0.1c0.1,0,0.3,0,0.4,0.1c-0.7-2.6-0.8-6,0.8-8.3
		C70.8,39.8,72.9,39,75.1,39 M97.1,96.6c-1.5-2.1-3.9-4.1-5.9-6.1c-3.4-3.6-3-2.7-4-7.4c-0.7-3.4-1.5-6.7-1.7-10.4
		c-0.1,3.7-1.9,8.7-0.2,12.5c3.5,7.8,0.7,8.2,8.1,9.8C94.7,95.1,96,95.8,97.1,96.6 M52.9,96.6c1.1-0.8,2.4-1.5,3.6-1.7
		c7.4-1.5,4.6-2,8.1-9.8c1.7-3.8-0.1-8.8-0.2-12.5c-0.2,3.7-1,7-1.7,10.4c-1,4.8-0.6,3.8-4,7.4C56.9,92.5,54.5,94.4,52.9,96.6
		 M75.1,37c-3,0-5.6,1.2-7.1,3.2c-1.8,2.6-1.8,5.9-1.5,8.1c-0.8,0.7-1.2,2,0.1,4.2c0.1,0.1,0.1,0.2,0.2,0.3c0,0.1,0.1,0.4,0.1,0.5
		c0.1,0.9,0.3,2.2,1.4,2.9c0,0.7-0.1,1.5-0.2,1.9c-0.9,0.5-1.9,0.8-3,1.1c-2.7,0.9-6.1,1.9-7,5.6c-0.6,2.2-0.9,5-1.1,7.7
		c-0.1,1.2-0.2,2.5-0.4,3.6c-0.1,1-0.2,1.8-0.3,2.4c-0.2,2.1-0.3,2.3-0.8,3.1c-1.7,2.4-2.9,4.7-3.9,6.5c-1,1.8-1.7,3.3-2.7,4.3
		c-1.2,0.1-1.9,0.5-2.8,1.2l-0.2,0.1l-0.1,0c-0.8,0.1-1.5,0.7-1.9,1.4c0,0.1-0.1,0.1-0.1,0.2c-0.1,0.2-0.1,0.4-0.1,0.5
		c-0.6,1-1.1,2.5-0.9,3.7c0.2,0.9,0.7,1.6,1.5,2.1c0.1,0.1,0.3,0.1,0.4,0.2c0,0,0.1,0,0.1,0c0.4,0.4,0.8,0.6,1.3,0.6
		c0.2,2.2,1.4,4.7,5.1,6.5c2.6,1.3,5.5,2,8,2c0.5,0,1,0,1.5-0.1c0.1,0,0.1,0,0.2,0c1.9,0,3.8-0.3,6-0.8c1.4-0.3,2.7-0.8,4-1.2
		c1.4-0.4,2.8-0.9,4.2-1.2c1.4,0.3,2.7,0.8,4.1,1.2c1.3,0.4,2.6,0.8,4,1.2c2.3,0.6,4.2,0.8,6,0.8c0.1,0,0.1,0,0.2,0
		c0.5,0.1,1,0.1,1.5,0.1c2.5,0,5.4-0.7,8-2c3.7-1.8,4.9-4.3,5.1-6.5c0.5-0.1,0.9-0.3,1.3-0.6c0,0,0.1,0,0.1,0c0.1,0,0.3-0.1,0.4-0.2
		c0.8-0.4,1.3-1.1,1.5-2.1c0.2-1.3-0.3-2.8-0.9-3.7c0-0.2,0-0.3-0.1-0.5c0-0.1-0.1-0.2-0.1-0.2c-0.3-0.8-1-1.3-1.9-1.4l-0.3-0.1
		c-0.9-0.8-1.6-1.1-2.8-1.2c-1-1-1.7-2.5-2.7-4.3c-0.9-1.8-2.1-4-3.9-6.5c-0.6-0.8-0.6-1-0.8-3.1c-0.1-0.7-0.2-1.4-0.3-2.4
		c-0.1-1.2-0.3-2.4-0.4-3.6c-0.2-2.7-0.5-5.4-1.2-7.7c-1-3.6-4.3-4.7-7-5.6c-1.1-0.4-2.2-0.7-3.1-1.2c-0.1-0.3-0.1-1.2-0.1-1.8
		c1.1-0.7,1.3-2.1,1.5-3c0-0.2,0.1-0.4,0.1-0.5c0-0.1,0.1-0.2,0.2-0.3c1.2-2.2,0.8-3.4,0.1-4.2c0.3-2.2,0.4-5.5-1.5-8.1
		C80.7,38.2,78.1,37,75.1,37L75.1,37z"/>
</g>
</svg>
