<?xml version="1.0" encoding="utf-8"?>
<!-- Generator: Adobe Illustrator 18.1.0, SVG Export Plug-In . SVG Version: 6.00 Build 0)  -->
<svg version="1.1" id="Layer_1" xmlns="http://www.w3.org/2000/svg" xmlns:xlink="http://www.w3.org/1999/xlink" x="0px" y="0px"
	 viewBox="0 0 150 150" enable-background="new 0 0 150 150" xml:space="preserve">
<g>
	<g>
		<path fill="#FF6A4C" d="M75,2c40.3,0,73,32.7,73,73s-32.7,73-73,73S2,115.3,2,75S34.7,2,75,2 M75,0C33.6,0,0,33.6,0,75
			c0,41.4,33.6,75,75,75s75-33.6,75-75C150,33.6,116.4,0,75,0L75,0z"/>
	</g>
</g>
<g>
	<g>
		<path fill="none" stroke="#FF6A4C" stroke-width="2" stroke-linecap="round" stroke-linejoin="round" stroke-miterlimit="10" d="
			M82,94.9c0,0,2.3,1.4,4.7,0c2.3-1.4,25.8-14.9,25.8-14.9s2.3-1.4,0-2.7C110.2,76,68,51.6,68,51.6s-2.3-1.4-4.7,0
			C60.9,53,37.5,66.5,37.5,66.5s-2.3,1.4,0,2.7C39.8,70.6,82,94.9,82,94.9z"/>
		<path fill="none" stroke="#FF6A4C" stroke-width="2" stroke-linecap="round" stroke-linejoin="round" stroke-miterlimit="10" d="
			M63.3,57c0,0,2.3-1.4,4.7,0c2.3,1.4,0,2.7,0,2.7s-2.3,1.4-4.7,0C60.9,58.4,63.3,57,63.3,57z"/>
		
			<line fill="none" stroke="#FF6A4C" stroke-width="2" stroke-linecap="round" stroke-linejoin="round" stroke-miterlimit="10" x1="46.9" y1="66.5" x2="60.9" y2="74.6"/>
		
			<line fill="none" stroke="#FF6A4C" stroke-width="2" stroke-linecap="round" stroke-linejoin="round" stroke-miterlimit="10" x1="51.6" y1="63.8" x2="70.3" y2="74.6"/>
	</g>
	<path fill="none" stroke="#FF6A4C" stroke-width="2" stroke-linecap="round" stroke-linejoin="round" stroke-miterlimit="10" d="
		M37.4,74.6L82,100.4c0,0,2.3,1.4,4.7,0c2.3-1.4,25.8-14.9,25.8-14.9"/>
</g>
</svg>
