<?xml version="1.0" encoding="utf-8"?>
<!-- Generator: Adobe Illustrator 15.0.0, SVG Export Plug-In . SVG Version: 6.00 Build 0)  -->
<!DOCTYPE svg PUBLIC "-//W3C//DTD SVG 1.1//EN" "http://www.w3.org/Graphics/SVG/1.1/DTD/svg11.dtd">
<svg version="1.1" id="Layer_1" xmlns="http://www.w3.org/2000/svg" xmlns:xlink="http://www.w3.org/1999/xlink" x="0px" y="0px"
	 viewBox="0 0 186.16 50" enable-background="new 0 0 186.16 50" xml:space="preserve">
<g>
	<g>
		<path fill="#FFFFFF" d="M71.241,19.642c3.18,0,5.634,2.688,5.634,5.633c0,2.925-2.415,5.634-5.634,5.634
			c-3.14,0-5.593-2.65-5.593-5.555C65.648,21.958,68.416,19.642,71.241,19.642z M71.261,29.671c2.081,0,4.24-1.647,4.24-4.456
			c0-2.827-2.395-4.338-4.24-4.338c-1.963,0-4.239,1.609-4.239,4.456C67.022,27.827,69.043,29.671,71.261,29.671z"/>
		<path fill="#FFFFFF" d="M79.592,19.917h1.374v1.236l-0.04-0.04v0.04h0.04c0.608-1.061,1.923-1.511,2.924-1.511
			c0.903,0,2.807,0.412,3.612,2.061c0.805-1.649,2.708-2.061,3.611-2.061c1.649,0,4.298,0.981,4.298,4.633v6.378h-1.374v-6.222
			c0-1.179-0.215-1.747-0.49-2.238c-0.451-0.766-1.275-1.315-2.434-1.315c-1.158,0-1.982,0.549-2.434,1.315
			c-0.274,0.491-0.49,1.06-0.49,2.238v6.222h-1.374v-6.222c0-1.179-0.216-1.747-0.492-2.238c-0.451-0.766-1.275-1.315-2.434-1.315
			s-1.983,0.549-2.434,1.315c-0.275,0.491-0.49,1.06-0.49,2.238v6.222h-1.374V19.917z"/>
		<path fill="#FFFFFF" d="M107.712,30.653h-1.295v-1.668h-0.041c-0.391,0.805-1.432,1.924-3.434,1.924
			c-2.121,0-3.219-1.021-3.689-1.61c-0.767-0.942-0.943-2.315-0.943-3.455v-5.927h1.374v5.908c0,1.355,0.294,2.239,0.767,2.827
			c0.745,0.845,1.746,1.021,2.492,1.021c0.766,0,1.59-0.176,2.277-0.863c0.627-0.628,1.118-1.335,1.118-3.219v-5.672h1.374V30.653z"
			/>
		<path fill="#FFFFFF" d="M121.538,27.493c-0.688,1.335-2.119,3.416-5.34,3.416c-3.355,0-5.77-2.611-5.77-5.615
			c0-3.101,2.571-5.652,5.77-5.652c1.887,0,4.299,0.942,5.34,3.513h-1.511c-0.864-1.628-2.435-2.277-3.789-2.277
			c-2.101,0-4.436,1.57-4.436,4.377c0,2.415,1.864,4.417,4.436,4.417c2.239,0,3.357-1.354,3.789-2.179H121.538z"/>
		<path fill="#FFFFFF" d="M124.255,16.128h1.374v5.163h0.038c0.414-0.648,1.473-1.649,3.299-1.649c1.315,0,2.414,0.334,3.396,1.316
			c0.806,0.784,1.335,2.021,1.335,3.788v5.907h-1.373v-5.907c0-1.395-0.433-2.376-1.021-2.945c-0.745-0.727-1.728-0.923-2.336-0.923
			c-0.607,0-1.59,0.196-2.336,0.923c-0.589,0.569-1.021,1.55-1.001,2.945v5.907h-1.374V16.128z"/>
		<path fill="#FFFFFF" d="M137.138,19.917h1.374v1.236l-0.04-0.04v0.04h0.04c0.608-1.061,1.923-1.511,2.924-1.511
			c0.903,0,2.808,0.412,3.612,2.061c0.805-1.649,2.709-2.061,3.611-2.061c1.649,0,4.3,0.981,4.3,4.633v6.378h-1.374v-6.222
			c0-1.179-0.217-1.747-0.491-2.238c-0.452-0.766-1.276-1.315-2.435-1.315c-1.157,0-1.982,0.549-2.434,1.315
			c-0.275,0.491-0.491,1.06-0.491,2.238v6.222h-1.373v-6.222c0-1.179-0.217-1.747-0.491-2.238c-0.451-0.766-1.275-1.315-2.435-1.315
			c-1.158,0-1.981,0.549-2.434,1.315c-0.274,0.491-0.49,1.06-0.49,2.238v6.222h-1.374V19.917z"/>
		<path fill="#FFFFFF" d="M161.088,19.642c3.18,0,5.634,2.688,5.634,5.633c0,2.925-2.415,5.634-5.634,5.634
			c-3.141,0-5.595-2.65-5.595-5.555C155.493,21.958,158.261,19.642,161.088,19.642z M161.107,29.671c2.081,0,4.24-1.647,4.24-4.456
			c0-2.827-2.395-4.338-4.24-4.338c-1.963,0-4.239,1.609-4.239,4.456C156.868,27.827,158.89,29.671,161.107,29.671z"/>
		<path fill="#FFFFFF" d="M169.257,19.917h1.373v1.55h0.04c0.647-1.511,1.864-1.747,3.023-1.825v1.452
			c-0.962,0.078-1.788,0.433-2.316,1.061c-0.472,0.588-0.747,1.354-0.747,2.217v6.281h-1.373V19.917z"/>
		<path fill="#FFFFFF" d="M176.374,25.785c0.098,2.1,2.061,3.886,4.161,3.886c1.962-0.038,3.356-1.198,3.847-2.532h1.453
			c-0.745,2.141-2.807,3.77-5.281,3.77c-3.002,0-5.594-2.436-5.594-5.615c0-3.042,2.455-5.594,5.575-5.652
			c2.355,0.019,4.024,1.414,4.79,2.748c0.727,1.158,0.883,2.356,0.823,3.396H176.374z M184.755,24.549
			c-0.432-2.533-2.492-3.671-4.201-3.671c-1.688,0-3.787,1.138-4.18,3.671H184.755z"/>
		<path fill="#FFFFFF" d="M61.858,22.241c0,0,0.101,0.223,0.131,0.483h1.335c-0.04-0.933-0.516-1.524-0.516-1.524l0,0
			c-0.688-0.97-2.046-1.586-3.721-1.586c-2.438,0-4.208,1.309-4.208,3.11c0,2.14,2.13,2.58,3.841,2.934l0.197,0.041
			c2.151,0.407,3.398,0.864,3.398,2c0,1.14-1.249,1.903-3.106,1.903c-1.859,0-3.108-0.764-3.108-1.903v-0.256h-1.34v0.256
			c0,1.94,1.787,3.245,4.448,3.245c2.66,0,4.446-1.305,4.446-3.245c0-2.468-2.81-2.999-4.477-3.314l-0.188-0.039
			c-1.883-0.39-2.771-0.677-2.771-1.622c0-1.025,1.205-1.771,2.867-1.771C60.476,20.954,61.542,21.474,61.858,22.241z"/>
	</g>
	<g>
		<radialGradient id="SVGID_1_" cx="25.1411" cy="19.5796" r="19.5803" gradientUnits="userSpaceOnUse">
			<stop  offset="0" style="stop-color:#FF0000"/>
			<stop  offset="1" style="stop-color:#FF0000;stop-opacity:0"/>
		</radialGradient>
		<circle fill="url(#SVGID_1_)" cx="25.141" cy="19.58" r="19.581"/>
		
			<radialGradient id="SVGID_2_" cx="565.8936" cy="-1101.1709" r="19.5803" gradientTransform="matrix(0.6236 -0.7817 0.7817 0.6236 528.5795 1150.7732)" gradientUnits="userSpaceOnUse">
			<stop  offset="0" style="stop-color:#86008C"/>
			<stop  offset="1" style="stop-color:#86008C;stop-opacity:0"/>
		</radialGradient>
		<circle fill="url(#SVGID_2_)" cx="20.686" cy="21.724" r="19.58"/>
		
			<radialGradient id="SVGID_3_" cx="1778.8242" cy="-1378.1001" r="19.5803" gradientTransform="matrix(-0.2222 -0.975 0.975 -0.2222 1758.4871 1454.6864)" gradientUnits="userSpaceOnUse">
			<stop  offset="0" style="stop-color:#46008A"/>
			<stop  offset="1" style="stop-color:#46008A;stop-opacity:0"/>
		</radialGradient>
		<circle fill="url(#SVGID_3_)" cx="19.584" cy="26.545" r="19.58"/>
		
			<radialGradient id="SVGID_4_" cx="2751.0264" cy="-602.1279" r="19.5798" gradientTransform="matrix(-0.9008 -0.4343 0.4343 -0.9008 2762.2954 682.7859)" gradientUnits="userSpaceOnUse">
			<stop  offset="0" style="stop-color:#00B7FF"/>
			<stop  offset="1" style="stop-color:#00B7FF;stop-opacity:0"/>
		</radialGradient>
		<circle fill="url(#SVGID_4_)" cx="22.666" cy="30.412" r="19.581"/>
		
			<radialGradient id="SVGID_5_" cx="2752.1201" cy="642.4497" r="19.582" gradientTransform="matrix(-0.9012 0.4333 -0.4333 -0.9012 2786.196 -583.1033)" gradientUnits="userSpaceOnUse">
			<stop  offset="0" style="stop-color:#39D649"/>
			<stop  offset="1" style="stop-color:#39CF49;stop-opacity:0"/>
		</radialGradient>
		<circle fill="url(#SVGID_5_)" cx="27.61" cy="30.415" r="19.58"/>
		
			<radialGradient id="SVGID_6_" cx="1778.6279" cy="1417.4673" r="19.5796" gradientTransform="matrix(-0.2233 0.9748 -0.9748 -0.2233 1809.6113 -1390.7352)" gradientUnits="userSpaceOnUse">
			<stop  offset="0" style="stop-color:#FFFF00"/>
			<stop  offset="1" style="stop-color:#FFFF00;stop-opacity:0"/>
		</radialGradient>
		<circle fill="url(#SVGID_6_)" cx="30.696" cy="26.551" r="19.58"/>
		
			<radialGradient id="SVGID_7_" cx="565.3955" cy="1141.7661" r="19.5801" gradientTransform="matrix(0.6228 0.7824 -0.7824 0.6228 570.7891 -1131.7264)" gradientUnits="userSpaceOnUse">
			<stop  offset="0" style="stop-color:#FF8C00"/>
			<stop  offset="1" style="stop-color:#FF8C00;stop-opacity:0"/>
		</radialGradient>
		<circle fill="url(#SVGID_7_)" cx="29.6" cy="21.729" r="19.581"/>
		<circle fill="#FFFFFF" cx="25.141" cy="25.279" r="12.094"/>
	</g>
</g>
</svg>
