<?xml version="1.0" encoding="utf-8"?>
<!-- Generator: Adobe Illustrator 17.1.0, SVG Export Plug-In . SVG Version: 6.00 Build 0)  -->
<!DOCTYPE svg PUBLIC "-//W3C//DTD SVG 1.1//EN" "http://www.w3.org/Graphics/SVG/1.1/DTD/svg11.dtd">
<svg version="1.1" id="Layer_1" xmlns="http://www.w3.org/2000/svg" xmlns:xlink="http://www.w3.org/1999/xlink" x="0px" y="0px"
	 viewBox="0 0 2616.8 702.8" enable-background="new 0 0 2616.8 702.8" xml:space="preserve">
<g>
	<g>
		<radialGradient id="SVGID_1_" cx="353.3957" cy="275.2317" r="275.232" gradientUnits="userSpaceOnUse">
			<stop  offset="0" style="stop-color:#E81A4B"/>
			<stop  offset="1" style="stop-color:#E81A4B;stop-opacity:0"/>
		</radialGradient>
		<circle fill="url(#SVGID_1_)" cx="353.4" cy="275.2" r="275.2"/>
		
			<radialGradient id="SVGID_2_" cx="7400.8999" cy="-3800.9258" r="275.2408" gradientTransform="matrix(0.6236 -0.7817 0.7817 0.6236 -1353.2432 8460.9248)" gradientUnits="userSpaceOnUse">
			<stop  offset="0" style="stop-color:#86328C"/>
			<stop  offset="1" style="stop-color:#86328C;stop-opacity:0"/>
		</radialGradient>
		<circle fill="url(#SVGID_2_)" cx="290.8" cy="305.4" r="275.2"/>
		
			<radialGradient id="SVGID_3_" cx="14981.7168" cy="-833.9118" r="275.2325" gradientTransform="matrix(-0.2222 -0.975 0.975 -0.2222 4417.2944 14795.0186)" gradientUnits="userSpaceOnUse">
			<stop  offset="0" style="stop-color:#46408A"/>
			<stop  offset="1" style="stop-color:#46408A;stop-opacity:0"/>
		</radialGradient>
		<circle fill="url(#SVGID_3_)" cx="275.3" cy="373.1" r="275.2"/>
		
			<radialGradient id="SVGID_4_" cx="17389.0371" cy="6943.1138" r="275.2234" gradientTransform="matrix(-0.9008 -0.4343 0.4343 -0.9008 12967.2559 14233.9131)" gradientUnits="userSpaceOnUse">
			<stop  offset="0" style="stop-color:#00B7C3"/>
			<stop  offset="1" style="stop-color:#00B7C3;stop-opacity:0"/>
		</radialGradient>
		<circle fill="url(#SVGID_4_)" cx="318.6" cy="427.5" r="275.2"/>
		
			<radialGradient id="SVGID_5_" cx="12812.8477" cy="13675.7471" r="275.2444" gradientTransform="matrix(-0.9012 0.4333 -0.4333 -0.9012 17860.75 7200.3115)" gradientUnits="userSpaceOnUse">
			<stop  offset="0" style="stop-color:#399F49"/>
			<stop  offset="1" style="stop-color:#399F49;stop-opacity:0"/>
		</radialGradient>
		<circle fill="url(#SVGID_5_)" cx="388.1" cy="427.5" r="275.2"/>
		
			<radialGradient id="SVGID_6_" cx="4694.6802" cy="14293.832" r="275.2186" gradientTransform="matrix(-0.2233 0.9748 -0.9748 -0.2233 15413.4307 -1011.3373)" gradientUnits="userSpaceOnUse">
			<stop  offset="0" style="stop-color:#FFDD00"/>
			<stop  offset="1" style="stop-color:#FFDD00;stop-opacity:0"/>
		</radialGradient>
		<path fill="url(#SVGID_6_)" d="M370,641.5c-148.2-33.9-240.8-181.6-206.8-329.7C197.1,163.6,344.8,71,492.9,104.9
			c148.2,33.9,240.8,181.6,206.8,329.7C665.8,582.8,518.2,675.4,370,641.5z"/>
		
			<radialGradient id="SVGID_7_" cx="-852.1185" cy="8335.3389" r="275.2282" gradientTransform="matrix(0.6228 0.7824 -0.7824 0.6228 7468.3403 -4219.1016)" gradientUnits="userSpaceOnUse">
			<stop  offset="0" style="stop-color:#F18C21"/>
			<stop  offset="1" style="stop-color:#F18C21;stop-opacity:0"/>
		</radialGradient>
		<path fill="url(#SVGID_7_)" d="M587.5,520.8c-118.9,94.7-292.1,75-386.7-43.9c-94.7-118.9-75-292.1,43.9-386.8
			c118.9-94.7,292.1-75,386.7,43.9C726.1,253,706.4,426.1,587.5,520.8z"/>
		<circle fill="#FFFFFF" cx="353.4" cy="355.3" r="170"/>
	</g>
	<g>
		<path fill="#FFFFFF" d="M1001.4,276.1c44.7,0,79.2,37.8,79.2,79.2c0,41.1-33.9,79.2-79.2,79.2c-44.1,0-78.6-37.2-78.6-78.1
			C922.8,308.7,961.7,276.1,1001.4,276.1z M1001.7,417.1c29.2,0,59.6-23.2,59.6-62.6c0-39.7-33.7-61-59.6-61
			c-27.6,0-59.6,22.6-59.6,62.6C942.1,391.2,970.5,417.1,1001.7,417.1z"/>
		<path fill="#FFFFFF" d="M1118.8,280h19.3v17.4l-0.6-0.6v0.6h0.6c8.5-14.9,27-21.2,41.1-21.2c12.7,0,39.5,5.8,50.8,29
			c11.3-23.2,38.1-29,50.8-29c23.2,0,60.4,13.8,60.4,65.1v89.7h-19.3v-87.5c0-16.6-3-24.6-6.9-31.5c-6.3-10.8-17.9-18.5-34.2-18.5
			c-16.3,0-27.9,7.7-34.2,18.5c-3.9,6.9-6.9,14.9-6.9,31.5v87.5h-19.3v-87.5c0-16.6-3-24.6-6.9-31.5c-6.3-10.8-17.9-18.5-34.2-18.5
			c-16.3,0-27.9,7.7-34.2,18.5c-3.9,6.9-6.9,14.9-6.9,31.5v87.5h-19.3V280z"/>
		<path fill="#FFFFFF" d="M1514.1,430.9h-18.2v-23.5h-0.6c-5.5,11.3-20.1,27-48.3,27c-29.8,0-45.2-14.4-51.9-22.6
			c-10.8-13.2-13.2-32.6-13.2-48.6V280h19.3v83c0,19,4.1,31.5,10.8,39.7c10.5,11.9,24.6,14.3,35,14.3c10.8,0,22.3-2.5,32-12.1
			c8.8-8.8,15.7-18.8,15.7-45.3V280h19.3V430.9z"/>
		<path fill="#FFFFFF" d="M1708.4,386.5c-9.7,18.8-29.8,48-75,48c-47.2,0-81.1-36.7-81.1-78.9c0-43.6,36.1-79.5,81.1-79.5
			c26.5,0,60.4,13.2,75,49.4h-21.2c-12.1-22.9-34.2-32-53.3-32c-29.5,0-62.3,22.1-62.3,61.5c0,33.9,26.2,62.1,62.3,62.1
			c31.5,0,47.2-19,53.3-30.6H1708.4z"/>
		<path fill="#FFFFFF" d="M1746.6,226.7h19.3v72.6h0.5c5.8-9.1,20.7-23.2,46.4-23.2c18.5,0,33.9,4.7,47.7,18.5
			c11.3,11,18.8,28.4,18.8,53.2v83.1H1860v-83.1c0-19.6-6.1-33.4-14.3-41.4c-10.5-10.2-24.3-13-32.8-13c-8.5,0-22.4,2.7-32.8,13
			c-8.3,8-14.4,21.8-14.1,41.4v83.1h-19.3V226.7z"/>
		<path fill="#FFFFFF" d="M1927.7,280h19.3v17.4l-0.6-0.6v0.6h0.6c8.6-14.9,27-21.2,41.1-21.2c12.7,0,39.5,5.8,50.8,29
			c11.3-23.2,38.1-29,50.8-29c23.2,0,60.4,13.8,60.4,65.1v89.7h-19.3v-87.5c0-16.6-3-24.6-6.9-31.5c-6.3-10.8-17.9-18.5-34.2-18.5
			c-16.3,0-27.9,7.7-34.2,18.5c-3.9,6.9-6.9,14.9-6.9,31.5v87.5h-19.3v-87.5c0-16.6-3-24.6-6.9-31.5c-6.3-10.8-17.9-18.5-34.2-18.5
			c-16.3,0-27.8,7.7-34.2,18.5c-3.9,6.9-6.9,14.9-6.9,31.5v87.5h-19.3V280z"/>
		<path fill="#FFFFFF" d="M2264.3,276.1c44.7,0,79.2,37.8,79.2,79.2c0,41.1-33.9,79.2-79.2,79.2c-44.1,0-78.6-37.2-78.6-78.1
			C2185.7,308.7,2224.6,276.1,2264.3,276.1z M2264.6,417.1c29.3,0,59.6-23.2,59.6-62.6c0-39.7-33.7-61-59.6-61
			c-27.6,0-59.6,22.6-59.6,62.6C2205,391.2,2233.4,417.1,2264.6,417.1z"/>
		<path fill="#FFFFFF" d="M2379.2,280h19.3v21.8h0.6c9.1-21.2,26.2-24.6,42.5-25.7v20.4c-13.5,1.1-25.1,6.1-32.6,14.9
			c-6.6,8.3-10.5,19-10.5,31.2v88.3h-19.3V280z"/>
		<path fill="#FFFFFF" d="M2479.2,362.5c1.4,29.5,29,54.6,58.5,54.6c27.6-0.5,47.2-16.8,54.1-35.6h20.4c-10.5,30.1-39.5,53-74.2,53
			c-42.2,0-78.6-34.2-78.6-78.9c0-42.8,34.5-78.6,78.4-79.5c33.1,0.3,56.6,19.9,67.3,38.6c10.2,16.3,12.4,33.1,11.6,47.7H2479.2z
			 M2597,345.1c-6.1-35.6-35-51.6-59-51.6c-23.7,0-53.2,16-58.8,51.6H2597z"/>
		<path fill="#FFFFFF" d="M869.5,312.6c0,0,1.4,3.1,1.9,6.8h18.8c-0.6-13.1-7.2-21.4-7.2-21.4v0c-9.7-13.6-28.8-22.3-52.3-22.3
			c-34.3,0-59.2,18.4-59.2,43.7c0,30.1,29.9,36.3,54,41.2l2.8,0.6c30.2,5.7,47.8,12.2,47.8,28.1c0,16-17.5,26.8-43.7,26.8
			c-26.1,0-43.7-10.7-43.7-26.8v-3.6h-18.8v3.6c0,27.3,25.1,45.6,62.5,45.6c37.4,0,62.5-18.3,62.5-45.6c0-34.7-39.5-42.1-62.9-46.6
			l-2.6-0.5c-26.5-5.5-38.9-9.5-38.9-22.8c0-14.4,16.9-24.9,40.3-24.9C850.1,294.5,865.1,301.9,869.5,312.6z"/>
	</g>
</g>
</svg>
