<?xml version="1.0" encoding="utf-8"?>
<!-- Generator: Adobe Illustrator 18.1.0, SVG Export Plug-In . SVG Version: 6.00 Build 0)  -->
<svg version="1.1" id="Layer_1" xmlns="http://www.w3.org/2000/svg" xmlns:xlink="http://www.w3.org/1999/xlink" x="0px" y="0px"
	 width="46px" height="30px" viewBox="-466 682.4 612 399.1" enable-background="new -466 682.4 612 399.1" xml:space="preserve">
<path fill="#13457B" d="M146,1055c0,14.6-12,26.6-26.6,26.6h-558.8c-14.6,0-26.6-12-26.6-26.6V709c0-14.6,12-26.6,26.6-26.6h558.8
	c14.6,0,26.6,12,26.6,26.6V1055z"/>
<g id="layer1" transform="translate(-457.20465,-631.07671)">
	<path id="path618" fill="#0066CB" d="M297.1,1601.2c23.9-21.3,39.9-53.2,39.9-89.1c0-34.6-14.6-66.5-39.9-89.1
		c-21.3-18.6-49.2-30.6-79.8-30.6c-66.5,0-119.7,53.2-119.7,119.7c0,66.5,53.2,119.7,119.7,119.7
		C247.9,1633.1,275.9,1621.2,297.1,1601.2"/>
	<path id="path620" fill="#0066CB" d="M297.1,1601.2c23.9-21.3,39.9-53.2,39.9-89.1c0-34.6-14.6-66.5-39.9-89.1"/>
	<path id="path622" fill="none" stroke="#0066CB" stroke-width="0.3097" d="M297.1,1601.2c23.9-21.3,39.9-53.2,39.9-89.1
		c0-34.6-14.6-66.5-39.9-89.1"/>
	<path id="path624" fill="#CC0001" d="M377,1393.6c-30.6,0-58.5,12-79.8,30.6c-4,4-8,8-12,13.3h23.9c4,4,6.7,8,9.3,13.3h-42.6
		c-2.7,4-5.3,8-6.7,13.3h55.9c1.3,4,4,8,5.3,13.3h-66.5c-1.3,4-2.7,8-4,13.3h73.2c1.3,8,2.7,16,2.7,25.3c0,13.3-2.7,26.6-6.7,38.6
		h-66.5c1.3,4,2.7,8,5.3,13.3h55.9c-2.7,4-4,8-6.7,13.3h-42.6c2.7,4,5.3,8,9.3,13.3h23.9c-4,4-8,9.3-12,13.3
		c21.3,18.6,49.2,30.6,79.8,30.6c66.5,0,119.7-53.2,119.7-119.7C496.7,1446.9,443.5,1393.6,377,1393.6"/>
	<path id="path642" fill="#FFFFFF" d="M201.4,1542.7h-14.6l9.3-46.6l-20,46.6h-14.6l-2.7-46.6l-9.3,46.6h-13.3l12-61.2h22.6
		l1.3,37.3l16-37.3H212L201.4,1542.7"/>
	<path id="path644" fill="#FFFFFF" d="M367.7,1542.7c-4,1.3-6.7,1.3-10.6,1.3c-8,0-12-4-12-10.6c0-1.3,0-2.7,0-4l1.3-5.3l1.3-4
		l6.7-37.3H369l-2.7,12h8l-2.7,12h-8l-4,20c0,1.3,0,1.3,0,2.7c0,2.7,1.3,4,5.3,4c1.3,0,2.7,0,4,0L367.7,1542.7"/>
	<path id="path648" fill="#FFFFFF" d="M411.6,1493.4c-1.3,0-1.3,0-1.3,0c-1.3,0-1.3,0-1.3,0h-1.3c-5.3,0-8,2.7-13.3,8l1.3-8h-13.3
		l-9.3,49.2h14.6c5.3-30.6,8-35.9,14.6-35.9h1.3h1.3L411.6,1493.4"/>
	<path id="path650" fill="#FFFFFF" d="M309.1,1509.4c0,6.7,4,10.6,12,13.3c6.7,2.7,6.7,2.7,6.7,5.3c0,2.7-2.7,4-8,4
		c-4,0-9.3,0-13.3-1.3l-2.7,12h1.3h2.7c1.3,0,2.7,0,4,0c4,0,6.7,0,8,0c16,0,22.6-5.3,22.6-16c0-6.7-2.7-10.6-10.6-13.3
		c-6.7-2.7-6.7-2.7-6.7-5.3c0-2.7,2.7-4,6.7-4c2.7,0,6.7,0,10.6,1.3l2.7-12c-4,0-9.3-1.3-13.3-1.3
		C314.4,1492.1,309.1,1500.1,309.1,1509.4"/>
	<path id="path652" fill="#FFFFFF" d="M239.9,1521.4c-1.3,0-2.7,0-4,0c-8,0-12,2.7-12,8c0,2.7,1.3,5.3,5.3,5.3
		C234.6,1533.3,238.6,1528,239.9,1521.4L239.9,1521.4z M250.6,1542.7h-13.3v-5.3c-4,4-9.3,5.3-16,5.3c-8,0-13.3-5.3-13.3-13.3
		c0-12,9.3-18.6,26.6-18.6c1.3,0,4,0,6.7,0c0-1.3,0-2.7,0-2.7c0-2.7-2.7-4-9.3-4c-4,0-9.3,0-12,1.3h-2.7H216l1.3-10.6
		c8-1.3,12-2.7,17.3-2.7c13.3,0,20,5.3,20,14.6c0,2.7,0,4-1.3,9.3l-2.7,17.3v2.7v2.7v1.3L250.6,1542.7"/>
	<path id="path654" fill="#FFFFFF" d="M291.8,1512.1c0-1.3,0-1.3,0-2.7c0-4-2.7-6.7-6.7-6.7c-5.3,0-8,2.7-9.3,9.3H291.8
		L291.8,1512.1z M298.5,1541.3c-5.3,1.3-9.3,1.3-14.6,1.3c-17.3,0-25.3-8-25.3-22.6c0-17.3,10.6-29.3,25.3-29.3c12,0,20,6.7,20,17.3
		c0,4,0,6.7-1.3,12h-29.3c0,1.3,0,1.3,0,1.3c0,5.3,4,8,13.3,8c5.3,0,10.6-1.3,16-2.7L298.5,1541.3"/>
	<path id="path656" fill="#FFFFFF" d="M442.2,1514.7c0-5.3-2.7-10.6-8-10.6c-8,0-12,9.3-12,17.3c0,6.7,2.7,10.6,8,10.6
		c2.7,0,10.6-4,12-12C442.2,1518.7,442.2,1516,442.2,1514.7z M458.1,1520c-2.7,16-13.3,23.9-29.3,23.9c-17.3,0-23.9-10.6-23.9-22.6
		c0-17.3,12-29.3,29.3-29.3c16,0,23.9,9.3,23.9,22.6C458.1,1517.4,458.1,1517.4,458.1,1520"/>
</g>
</svg>
