<?xml version="1.0" encoding="UTF-8"?>
<svg width="34px" height="44px" viewBox="0 0 34 44" version="1.1" xmlns="http://www.w3.org/2000/svg" xmlns:xlink="http://www.w3.org/1999/xlink" xmlns:sketch="http://www.bohemiancoding.com/sketch/ns">
    <defs>
        <linearGradient x1="0%" y1="0%" x2="0%" y2="0%" id="linearGradient-1"></linearGradient>
        <linearGradient x1="50%" y1="99%" x2="50%" y2="0%" id="linearGradient-2">
            <stop stop-color="#3BCCBD" offset="0%"></stop>
            <stop stop-color="#31A89C" offset="100%"></stop>
        </linearGradient>
        <path id="path-3" d="M17,2 C8.716,2 2,8.765 2,17.111 C2,17.461 2.016,17.805 2.039,18.149 C2.044,18.219 2.048,18.288 2.054,18.358 C2.08,18.683 2.115,19.008 2.161,19.326 C2.165,19.351 2.168,19.376 2.172,19.401 C2.212,19.67 2.259,19.936 2.315,20.199 C4.451,31.188 17,41 17,41 C17,41 29.549,31.188 31.685,20.199 C31.741,19.936 31.789,19.67 31.828,19.401 C31.832,19.376 31.835,19.351 31.839,19.326 C31.885,19.008 31.92,18.683 31.946,18.358 C31.952,18.288 31.957,18.219 31.961,18.149 C31.985,17.805 32,17.461 32,17.111 C32,8.765 25.284,2 17,2"></path>
    </defs>
    <g id="Page-1" stroke="none" stroke-width="1" fill="none" fill-rule="evenodd" sketch:type="MSPage">
        <g id="Imported-Layers" sketch:type="MSLayerGroup">
            <path d="M17,43.563 L16.387,43.088 C15.828,42.654 2.678,32.331 0.354,20.463 C0.294,20.184 0.24,19.881 0.193,19.575 C0.13,19.134 0.09,18.768 0.061,18.4 L0.05,18.257 C0.018,17.781 0,17.395 0,17.001 C0,7.627 7.626,0 17,0 C26.374,0 34,7.627 34,17.001 C34,17.395 33.983,17.781 33.957,18.167 L33.939,18.413 C33.91,18.768 33.87,19.134 33.817,19.493 C33.76,19.881 33.706,20.184 33.642,20.48 C31.322,32.331 18.172,42.654 17.613,43.088 L17,43.563" id="Fill-1" fill="#E9E5DD" sketch:type="MSShapeGroup"></path>
            <g id="Fill-2">
                <use fill="none" sketch:type="MSShapeGroup" xlink:href="#path-3"></use>
                <use fill="url(#linearGradient-2)" xlink:href="#path-3"></use>
            </g>
        </g>
    </g>
</svg>