<?xml version="1.0" encoding="utf-8"?>
<!-- Generator: Adobe Illustrator 18.1.0, SVG Export Plug-In . SVG Version: 6.00 Build 0)  -->
<svg version="1.1" id="Layer_1" xmlns="http://www.w3.org/2000/svg" xmlns:xlink="http://www.w3.org/1999/xlink" x="0px" y="0px"
	 viewBox="0 0 23.2 30" enable-background="new 0 0 23.2 30" width="32" height="40" xml:space="preserve">
<linearGradient id="XMLID_3_" gradientUnits="userSpaceOnUse" x1="11.623" y1="30" x2="11.623" y2="0">
	<stop  offset="0" style="stop-color:#F2836B"/>
	<stop  offset="1" style="stop-color:#CC5E45"/>
</linearGradient>
<path id="XMLID_1_" fill="url(#XMLID_3_)" d="M11.6,0C5.2,0,0,5.2,0,11.6c0,0.3,0,0.5,0,0.8c0,0.1,0,0.1,0,0.2c0,0.2,0,0.5,0.1,0.7
	c0,0,0,0,0,0.1c0,0.2,0.1,0.4,0.1,0.6c1.7,8.5,11.4,16,11.4,16s9.7-7.5,11.4-16c0-0.2,0.1-0.4,0.1-0.6c0,0,0,0,0-0.1
	c0-0.2,0.1-0.5,0.1-0.7c0-0.1,0-0.1,0-0.2c0-0.3,0-0.5,0-0.8C23.2,5.2,18,0,11.6,0z M11.6,18.9c-4,0-7.2-3.2-7.2-7.2
	s3.2-7.2,7.2-7.2c4,0,7.2,3.2,7.2,7.2S15.6,18.9,11.6,18.9z"/>
</svg>