<?xml version="1.0" encoding="utf-8"?>
<!-- Generator: Adobe Illustrator 15.0.0, SVG Export Plug-In . SVG Version: 6.00 Build 0)  -->
<!DOCTYPE svg PUBLIC "-//W3C//DTD SVG 1.1//EN" "http://www.w3.org/Graphics/SVG/1.1/DTD/svg11.dtd">
<svg version="1.1" id="Layer_1" xmlns="http://www.w3.org/2000/svg" xmlns:xlink="http://www.w3.org/1999/xlink" x="0px" y="0px"
	 width="46px" height="30px" viewBox="0 0 46 30" enable-background="new 0 0 46 30" xml:space="preserve">
<g>
	<path fill="#13457B" d="M46,28c0,1.1-0.9,2-2,2H2c-1.1,0-2-0.9-2-2V2c0-1.1,0.9-2,2-2h42c1.1,0,2,0.9,2,2V28z"/>
	<g>
		<g>
			<g>
				<g>
					<circle fill="#E30613" cx="16.975" cy="15" r="8.975"/>
					<g>
						<path fill="#F7A600" d="M29.024,6.025c-2.318,0-4.432,0.879-6.024,2.322c-0.324,0.295-0.628,0.613-0.906,0.951h1.812
							c0.248,0.301,0.477,0.617,0.685,0.949h-3.182c-0.19,0.307-0.363,0.623-0.517,0.951h4.215c0.145,0.309,0.271,0.625,0.381,0.949
							h-4.977c-0.104,0.311-0.19,0.627-0.261,0.951h5.497c0.133,0.613,0.202,1.248,0.202,1.9c0,0.996-0.162,1.955-0.462,2.852
							h-4.977c0.109,0.326,0.236,0.643,0.38,0.949h4.216c-0.153,0.328-0.326,0.646-0.517,0.951h-3.182
							c0.208,0.332,0.437,0.648,0.685,0.949h1.812c-0.278,0.34-0.582,0.658-0.906,0.951c1.593,1.443,3.706,2.322,6.024,2.322
							C33.981,23.975,38,19.957,38,15S33.981,6.025,29.024,6.025z"/>
					</g>
				</g>
			</g>
			<g>
				<g>
					<polygon fill="#FFFFFF" points="12.761,17.361 11.786,17.361 12.345,13.863 11.098,17.361 10.434,17.361 10.352,13.883 
						9.766,17.361 8.854,17.361 9.615,12.811 11.017,12.811 11.056,15.629 12.001,12.811 13.515,12.811 					"/>
					<path fill="#FFFFFF" d="M15.16,15.713c-0.103-0.012-0.147-0.016-0.218-0.016c-0.552,0-0.831,0.189-0.831,0.564
						c0,0.23,0.136,0.377,0.349,0.377C14.857,16.639,15.143,16.26,15.16,15.713z M15.869,17.361c-0.131,0-0.808,0-0.808,0
						l0.019-0.383c-0.246,0.303-0.575,0.447-1.021,0.447c-0.528,0-0.891-0.412-0.891-1.01c0-0.902,0.63-1.428,1.711-1.428
						c0.111,0,0.252,0.01,0.397,0.029c0.03-0.123,0.038-0.176,0.038-0.242c0-0.244-0.17-0.336-0.625-0.336
						c-0.477-0.006-0.869,0.113-1.031,0.166c0.01-0.061,0.135-0.832,0.135-0.832c0.485-0.143,0.807-0.195,1.166-0.195
						c0.837,0,1.28,0.375,1.279,1.084c0.002,0.191-0.03,0.426-0.079,0.734C16.075,15.932,15.894,17.082,15.869,17.361z"/>
					<path fill="#FFFFFF" d="M28.938,12.934l-0.16,0.986c-0.348-0.174-0.6-0.244-0.87-0.244c-0.728,0-1.237,0.701-1.237,1.705
						c0,0.691,0.343,1.107,0.909,1.107c0.24,0,0.505-0.074,0.827-0.232l-0.171,1.037c-0.358,0.098-0.591,0.133-0.86,0.133
						c-1.049,0-1.703-0.754-1.703-1.965c0-1.627,0.903-2.766,2.194-2.766C28.292,12.695,28.794,12.877,28.938,12.934z"/>
					<path fill="#FFFFFF" d="M30.51,15.713c-0.103-0.012-0.147-0.016-0.218-0.016c-0.552,0-0.831,0.189-0.831,0.564
						c0,0.23,0.136,0.377,0.349,0.377C30.207,16.639,30.492,16.26,30.51,15.713z M31.219,17.361c-0.131,0-0.808,0-0.808,0
						l0.019-0.383c-0.246,0.303-0.575,0.447-1.021,0.447c-0.528,0-0.89-0.412-0.89-1.01c0-0.902,0.63-1.428,1.71-1.428
						c0.111,0,0.252,0.01,0.397,0.029c0.03-0.123,0.038-0.176,0.038-0.242c0-0.244-0.17-0.336-0.625-0.336
						c-0.477-0.006-0.869,0.113-1.031,0.166c0.01-0.061,0.135-0.832,0.135-0.832c0.486-0.143,0.807-0.195,1.166-0.195
						c0.837,0,1.28,0.375,1.279,1.084c0.002,0.191-0.029,0.426-0.079,0.734C31.425,15.932,31.243,17.082,31.219,17.361z"/>
					<path fill="#FFFFFF" d="M20.199,17.307c-0.268,0.084-0.475,0.119-0.7,0.119c-0.498,0-0.771-0.285-0.771-0.812
						c-0.007-0.164,0.072-0.594,0.134-0.986c0.057-0.348,0.423-2.527,0.423-2.527h0.968l-0.112,0.561h0.497l-0.133,0.889h-0.499
						c-0.112,0.705-0.272,1.582-0.274,1.699c0,0.191,0.103,0.273,0.334,0.273c0.11,0,0.196-0.012,0.263-0.035L20.199,17.307z"/>
					<path fill="#FFFFFF" d="M23.168,17.277c-0.332,0.102-0.653,0.15-0.993,0.148c-1.085,0-1.649-0.566-1.649-1.65
						c0-1.266,0.719-2.197,1.694-2.197c0.799,0,1.309,0.521,1.309,1.34c0,0.271-0.034,0.535-0.119,0.91H21.48
						c-0.065,0.537,0.279,0.762,0.842,0.762c0.347,0,0.66-0.072,1.007-0.234L23.168,17.277z M22.624,15.08
						c0.006-0.076,0.103-0.66-0.45-0.66c-0.309,0-0.529,0.236-0.619,0.66H22.624z"/>
					<path fill="#FFFFFF" d="M16.453,14.83c0,0.469,0.227,0.791,0.742,1.035c0.395,0.186,0.455,0.24,0.455,0.408
						c0,0.23-0.174,0.334-0.56,0.334c-0.29,0-0.561-0.045-0.873-0.145c0,0-0.128,0.814-0.134,0.854
						c0.222,0.049,0.419,0.094,1.014,0.109c1.028,0,1.503-0.391,1.503-1.236c0-0.51-0.198-0.807-0.687-1.031
						c-0.408-0.189-0.455-0.23-0.455-0.402c0-0.201,0.162-0.303,0.477-0.303c0.191,0,0.452,0.02,0.7,0.055l0.139-0.857
						c-0.252-0.041-0.635-0.072-0.857-0.072C16.827,13.578,16.449,14.146,16.453,14.83z"/>
					<path fill="#FFFFFF" d="M36.375,17.361h-0.922l0.046-0.344c-0.267,0.285-0.541,0.408-0.898,0.408
						c-0.708,0-1.176-0.609-1.176-1.535c0-1.232,0.726-2.27,1.585-2.27c0.378,0,0.664,0.154,0.931,0.504l0.216-1.314h0.961
						L36.375,17.361z M34.938,16.506c0.453,0,0.772-0.514,0.772-1.246c0-0.471-0.182-0.727-0.517-0.727
						c-0.441,0-0.756,0.516-0.756,1.244C34.438,16.262,34.606,16.506,34.938,16.506z"/>
					<path fill="#FFFFFF" d="M32.096,13.66c-0.122,1.146-0.338,2.307-0.508,3.453l-0.045,0.248h0.975
						c0.349-2.264,0.434-2.705,0.979-2.65c0.087-0.463,0.249-0.869,0.37-1.072c-0.408-0.086-0.636,0.145-0.935,0.582
						c0.024-0.189,0.067-0.373,0.059-0.561H32.096z"/>
					<path fill="#FFFFFF" d="M24.075,13.66c-0.122,1.146-0.339,2.307-0.509,3.453l-0.044,0.248h0.975
						c0.349-2.264,0.433-2.705,0.979-2.65c0.088-0.463,0.25-0.869,0.37-1.072c-0.407-0.086-0.636,0.145-0.934,0.582
						c0.023-0.189,0.066-0.373,0.058-0.561H24.075z"/>
					<g>
						<path fill="#FFFFFF" d="M36.804,17.072c0-0.16,0.13-0.289,0.289-0.289c0.16,0,0.29,0.129,0.29,0.289s-0.13,0.289-0.29,0.289
							C36.934,17.361,36.804,17.232,36.804,17.072z M37.093,17.293c0.122,0,0.221-0.1,0.221-0.221s-0.099-0.221-0.221-0.221
							c-0.121,0-0.22,0.1-0.22,0.221S36.972,17.293,37.093,17.293z M37.054,17.199h-0.06v-0.254h0.108c0.022,0,0.045,0,0.064,0.012
							c0.021,0.016,0.033,0.039,0.033,0.064c0,0.029-0.018,0.055-0.045,0.066l0.047,0.111h-0.065l-0.039-0.1h-0.044V17.199z
							 M37.054,17.055h0.033c0.012,0,0.025,0.002,0.036-0.004c0.01-0.008,0.015-0.02,0.015-0.029S37.132,17,37.123,16.994
							c-0.01-0.006-0.026-0.004-0.037-0.004h-0.032V17.055z"/>
					</g>
				</g>
			</g>
		</g>
	</g>
</g>
</svg>
