<?xml version="1.0" encoding="utf-8"?>
<!-- Generator: Adobe Illustrator 18.1.0, SVG Export Plug-In . SVG Version: 6.00 Build 0)  -->
<svg version="1.1" id="Layer_1" xmlns="http://www.w3.org/2000/svg" xmlns:xlink="http://www.w3.org/1999/xlink" x="0px" y="0px"
	 viewBox="0 0 110 110" enable-background="new 0 0 110 110" xml:space="preserve">
<path fill="#58D2C8" d="M102.6,27.5c-2.3-4-8.5-5.1-11.7-8.4c-3.3-3.3-4.4-9.4-8.4-11.7c-4-2.3-9.8-0.2-14.4-1.4
	C63.8,4.8,59.7,0,55,0s-8.8,4.8-13.1,5.9c-4.5,1.2-10.4-0.9-14.4,1.4c-4,2.3-5.1,8.5-8.4,11.7c-3.3,3.3-9.4,4.4-11.7,8.4
	c-2.3,4-0.2,9.8-1.4,14.4C4.8,46.2,0,50.3,0,55s4.8,8.8,5.9,13.1c1.2,4.5-0.9,10.4,1.4,14.4c2.3,4,8.5,5.1,11.7,8.4
	c3.3,3.3,4.4,9.4,8.4,11.7c4,2.3,9.8,0.2,14.4,1.4c4.4,1.2,8.4,5.9,13.1,5.9s8.8-4.8,13.1-5.9c4.5-1.2,10.4,0.9,14.4-1.4
	c4-2.3,5.1-8.5,8.4-11.7c3.3-3.3,9.4-4.4,11.7-8.4c2.3-4,0.2-9.8,1.4-14.4c1.2-4.4,5.9-8.4,5.9-13.1c0-4.7-4.8-8.8-5.9-13.1
	C102.8,37.3,104.9,31.4,102.6,27.5z"/>
</svg>
