<?xml version="1.0" encoding="utf-8"?>
<!-- Generator: Adobe Illustrator 15.0.0, SVG Export Plug-In . SVG Version: 6.00 Build 0)  -->
<!DOCTYPE svg PUBLIC "-//W3C//DTD SVG 1.1//EN" "http://www.w3.org/Graphics/SVG/1.1/DTD/svg11.dtd">
<svg version="1.1" id="Layer_1" xmlns="http://www.w3.org/2000/svg" xmlns:xlink="http://www.w3.org/1999/xlink" x="0px" y="0px"
	 width="46px" height="30px" viewBox="0 0 46 30" enable-background="new 0 0 46 30" xml:space="preserve">
<g>
	<path fill="#376897" d="M46,28c0,1.1-0.9,2-2,2H2c-1.1,0-2-0.9-2-2V2c0-1.1,0.9-2,2-2h42c1.1,0,2,0.9,2,2V28z"/>
	<g>
		<polygon fill="#FFFFFF" points="40.395,11.801 40.395,11.099 40.136,11.099 40.136,11.006 40.762,11.006 40.762,11.099 
			40.5,11.099 40.5,11.801 		"/>
		<g>
			<path fill="#FFFFFF" d="M40.866,11.801v-0.795h0.156l0.189,0.562c0.017,0.053,0.03,0.093,0.036,0.118
				c0.011-0.028,0.025-0.071,0.044-0.128l0.192-0.553h0.141v0.795h-0.102v-0.664l-0.231,0.664h-0.095l-0.229-0.673v0.673H40.866z"/>
			<path fill="#FFFFFF" d="M28.966,14.062c-0.31,0.226-0.737,0.339-1.292,0.339H27.42c-0.22,0-0.358-0.177-0.311-0.391l0.309-1.333
				c0.05-0.214,0.27-0.39,0.489-0.39h0.335c0.393,0,0.688,0.066,0.888,0.2c0.198,0.132,0.298,0.335,0.298,0.609
				C29.428,13.515,29.273,13.836,28.966,14.062 M31.176,12.012c-0.127-0.248-0.317-0.45-0.562-0.604
				c-0.252-0.155-0.547-0.264-0.89-0.328c-0.342-0.062-0.743-0.094-1.205-0.094h-2.138c-0.222,0-0.439,0.175-0.487,0.39
				l-1.446,6.275c-0.051,0.214,0.09,0.39,0.309,0.39h1.026c0.22,0,0.439-0.176,0.489-0.39l0.352-1.521
				c0.048-0.214,0.271-0.391,0.488-0.391h0.294c1.251,0,2.224-0.256,2.922-0.771c0.695-0.514,1.044-1.191,1.044-2.031
				C31.371,12.566,31.306,12.258,31.176,12.012"/>
			<path fill="#FFFFFF" d="M34.305,16.654c-0.167,0.12-0.348,0.219-0.535,0.297c-0.19,0.076-0.367,0.115-0.535,0.115
				c-0.254,0-0.448-0.036-0.582-0.111c-0.133-0.072-0.199-0.2-0.199-0.384c0-0.206,0.05-0.374,0.151-0.501
				c0.099-0.126,0.246-0.223,0.435-0.293c0.187-0.066,0.41-0.115,0.674-0.151c0.264-0.034,0.548-0.064,0.85-0.09L34.305,16.654z
				 M33.982,18.04h1.287c0.22,0,0.441-0.176,0.489-0.39l0.746-3.23c0.019-0.077,0.034-0.164,0.044-0.268
				c0.012-0.102,0.018-0.183,0.018-0.246c0-0.457-0.194-0.796-0.582-1.013c-0.391-0.22-0.999-0.327-1.828-0.327
				c-0.413,0-0.826,0.032-1.239,0.096c-0.417,0.062-0.722,0.12-0.921,0.171l-0.173,0.881c-0.042,0.217-0.007,0.395,0.079,0.395
				c0.169-0.062,0.421-0.142,0.758-0.237c0.338-0.096,0.646-0.143,0.925-0.143c0.411,0,0.72,0.045,0.927,0.133
				c0.207,0.089,0.311,0.244,0.311,0.463c0,0.052-0.006,0.102-0.015,0.145c-0.011,0.044-0.019,0.076-0.022,0.095
				c-0.587,0.035-1.132,0.089-1.636,0.161c-0.502,0.072-0.937,0.191-1.3,0.355c-0.388,0.175-0.682,0.408-0.879,0.699
				c-0.197,0.294-0.297,0.649-0.297,1.07c0,0.398,0.14,0.723,0.418,0.97c0.278,0.248,0.638,0.372,1.078,0.372
				c0.273,0,0.487-0.02,0.643-0.058c0.153-0.039,0.318-0.095,0.494-0.169c0.129-0.057,0.27-0.136,0.422-0.237
				c0.15-0.097,0.279-0.184,0.387-0.255L33.982,18.04"/>
			<path fill="#FFFFFF" d="M39.838,11.041l-1.46,6.609c-0.051,0.215-0.272,0.391-0.491,0.391h-0.914c-0.22,0-0.359-0.176-0.31-0.391
				l1.371-6.219c0.05-0.215,0.271-0.391,0.49-0.391H39.838"/>
			<path fill="#FFFFFF" d="M10.904,14.072c-0.309,0.227-0.737,0.34-1.291,0.34H9.358c-0.221,0-0.359-0.178-0.31-0.391l0.307-1.333
				c0.051-0.214,0.271-0.391,0.489-0.391h0.337c0.391,0,0.688,0.067,0.887,0.201c0.199,0.132,0.298,0.334,0.298,0.609
				C11.366,13.525,11.211,13.848,10.904,14.072 M13.115,12.022c-0.129-0.247-0.318-0.45-0.564-0.604
				c-0.25-0.156-0.547-0.264-0.889-0.328c-0.343-0.062-0.744-0.094-1.206-0.094H8.32c-0.221,0-0.441,0.174-0.49,0.39l-1.445,6.274
				c-0.049,0.216,0.09,0.391,0.311,0.391h1.025c0.221,0,0.44-0.175,0.489-0.39l0.353-1.522c0.049-0.214,0.27-0.389,0.488-0.389
				h0.294c1.251,0,2.224-0.256,2.92-0.771c0.696-0.515,1.046-1.192,1.046-2.032C13.311,12.578,13.246,12.271,13.115,12.022"/>
			<path fill="#FFFFFF" d="M16.242,16.665c-0.167,0.12-0.346,0.22-0.535,0.296c-0.19,0.08-0.367,0.117-0.535,0.117
				c-0.253,0-0.448-0.036-0.581-0.111c-0.134-0.072-0.198-0.201-0.198-0.384c0-0.207,0.049-0.374,0.148-0.501
				c0.1-0.125,0.247-0.224,0.438-0.293c0.186-0.066,0.411-0.117,0.674-0.152c0.264-0.034,0.547-0.063,0.848-0.089L16.242,16.665z
				 M15.922,18.052h1.286c0.221,0,0.439-0.175,0.49-0.39l0.745-3.23c0.019-0.077,0.035-0.166,0.043-0.268
				c0.013-0.1,0.019-0.182,0.019-0.244c0-0.459-0.195-0.798-0.584-1.015c-0.388-0.22-0.997-0.327-1.827-0.327
				c-0.412,0-0.825,0.032-1.239,0.096c-0.417,0.063-0.723,0.121-0.919,0.172l-0.175,0.88c-0.042,0.216-0.005,0.394,0.081,0.394
				c0.168-0.063,0.421-0.141,0.757-0.235c0.339-0.097,0.646-0.144,0.925-0.144c0.411,0,0.72,0.045,0.929,0.133
				c0.206,0.089,0.31,0.242,0.31,0.464c0,0.052-0.007,0.101-0.015,0.144c-0.013,0.045-0.02,0.074-0.023,0.096
				c-0.586,0.034-1.13,0.087-1.635,0.161c-0.503,0.071-0.936,0.19-1.3,0.354c-0.389,0.176-0.682,0.409-0.881,0.701
				c-0.198,0.293-0.297,0.648-0.297,1.068c0,0.399,0.14,0.724,0.419,0.971c0.278,0.248,0.638,0.373,1.078,0.373
				c0.273,0,0.488-0.02,0.642-0.059c0.155-0.039,0.32-0.094,0.494-0.17c0.129-0.055,0.271-0.136,0.423-0.235
				c0.149-0.1,0.28-0.185,0.386-0.256L15.922,18.052"/>
			<path fill="#FFFFFF" d="M23.713,12.57c-0.219,0-0.51,0.176-0.643,0.391l-1.81,3.109l-0.497-3.104
				c-0.048-0.216-0.27-0.39-0.488-0.39H19.36c-0.22,0-0.36,0.174-0.309,0.39l0.791,5.127c0.015,0.111,0.028,0.205,0.042,0.284
				l-0.985,1.652c-0.131,0.214-0.061,0.391,0.159,0.391h1.061c0.221,0,0.508-0.177,0.641-0.391l4.413-7.459H23.713z"/>
		</g>
	</g>
</g>
</svg>
