<?xml version="1.0" encoding="utf-8"?>
<!-- Generator: Adobe Illustrator 18.1.0, SVG Export Plug-In . SVG Version: 6.00 Build 0)  -->
<svg version="1.1" id="Layer_1" xmlns="http://www.w3.org/2000/svg" xmlns:xlink="http://www.w3.org/1999/xlink" x="0px" y="0px"
	 viewBox="0 329.1 612 133.7" enable-background="new 0 329.1 612 133.7" xml:space="preserve">
<path fill="#777777" d="M581.1,462.9H30.9C13.9,462.9,0,449,0,432v-72c0-17,13.9-30.9,30.9-30.9h550.3c17,0,30.9,13.9,30.9,30.9v72
	C612,449,598.1,462.9,581.1,462.9L581.1,462.9z M474.2,421.7h13.4v-41.1h-13.4V421.7L474.2,421.7z M64.8,372.3H51.9v44.2h8.2v-16.5
	h3.6c10.3,0,17-4.6,17-14.4C80.7,377,75.1,372.3,64.8,372.3L64.8,372.3z M98.7,385.2c-8.2,0-14.4,6.2-14.4,15.9
	c0,10.3,6.2,15.9,14.4,15.9c8.2,0,14.4-6.2,14.4-15.9S107,385.2,98.7,385.2L98.7,385.2z M153.3,385.7l-5.1,20.6l-5.7-20.6h-6.7
	l-5.7,20.6l-5.7-21.1l-7.7,1l9.3,30.3h7.2l5.7-20.6l5.7,20.6h7.2l9.3-30.9H153.3L153.3,385.7z M177.9,385.2
	c-8.2,0-13.9,6.2-13.9,15.9c0,11.3,6.7,15.9,14.9,15.9c5.1,0,9.3-1.5,12.3-3.6l-1-6.2c-3.6,2.6-6.7,3.6-10.8,3.6
	c-4.6,0-8.2-2.6-8.2-8.7h20.1c0-0.5,0-1,0-2.1C191.3,391.9,187.2,385.2,177.9,385.2L177.9,385.2z M215.5,385.2
	c-4.6,0-7.7,3.1-9.8,6.7l-1-6.2H198v30.9h7.7v-17.5c2.1-3.1,6.2-5.7,10.8-6.2L215.5,385.2L215.5,385.2z M234,385.2
	c-8.2,0-13.9,6.2-13.9,15.9c0,11.3,6.7,15.9,14.9,15.9c5.1,0,9.3-1.5,12.3-3.6l-1-6.2c-3.6,2.6-6.7,3.6-10.8,3.6
	c-4.6,0-8.2-2.6-8.2-8.7h20.1c0-0.5,0-1,0-2.1C247.4,391.9,243.3,385.2,234,385.2L234,385.2z M280.8,370.3l-7.7,1v14.9
	c-2.1-0.5-4.1-1-7.2-1c-7.2,0-13.4,5.1-13.4,16.5c0,10.3,5.1,15.4,11.8,15.4c4.1,0,7.2-2.1,9.3-5.1l0.5,4.1h6.7L280.8,370.3
	L280.8,370.3z M320.4,385.2c-4.1,0-6.7,2.1-8.7,4.1v-19l-7.7,1v43.2c3.6,1,7.7,2.1,12.9,2.1c9.3,0,15.4-5.1,15.4-16.5
	C331.7,389.8,326.6,385.2,320.4,385.2L320.4,385.2z M357.4,385.7l-6.7,21.6l-7.2-22.1l-8.2,1l11.3,30.3l-0.5,1
	c-1,3.1-3.1,4.1-5.7,4.1c-1.5,0-2.6,0-3.6-0.5l1,6.7c0.5,0,1.5,0.5,3.1,0.5c5.7,0,9.3-2.1,11.8-9.8l12.3-32.9H357.4L357.4,385.7z
	 M401.1,389.3c4.1,0,7.2,1.5,9.8,3.1l1.5-9.8c-2.1-1-5.7-2.6-11.8-2.6c-4.6,0-8.2,1-10.8,3.1c-2.6,2.1-4.1,5.7-4.1,9.3
	c0,7.2,4.1,10.3,11.3,12.9c4.6,1.5,6.2,2.6,6.2,4.6c0,1.5-1.5,2.6-4.1,2.6c-3.1,0-8.7-1.5-12.3-3.6l-1.5,9.8
	c3.1,1.5,8.7,3.6,14.9,3.6c4.6,0,8.7-1,11.3-3.1c3.1-2.1,4.6-5.7,4.6-10.3c0-7.2-4.6-10.3-11.8-12.9c-3.6-1.5-6.2-2.6-6.2-4.1
	C397.5,390.3,399.1,389.3,401.1,389.3L401.1,389.3z M435.1,380.6v-11.8l-11.3,2.1l-1.5,9.8l-4.1,0.5l-1.5,9.3h5.7v19
	c0,5.1,1,8.2,3.6,10.3c2.1,1.5,5.1,2.6,9.8,2.6c3.6,0,5.7-0.5,6.7-1v-10.3c-1,0-2.6,0.5-3.6,0.5c-2.6,0-3.6-1.5-3.6-4.1v-17h6.7
	l1.5-9.8H435.1L435.1,380.6z M469.5,380.6c-1,0-1.5-0.5-2.6-0.5c-3.6,0-6.2,2.1-7.2,5.7l-0.5-5.1h-11.8v41.1h12.9V395
	c1.5-2.1,3.1-2.6,6.7-2.6c0.5,0,1.5,0,2.6,0V380.6L469.5,380.6z M480.9,361c-3.6,0-6.7,3.1-6.7,6.7c0,3.6,3.1,6.7,6.7,6.7
	c3.6,0,6.7-3.1,6.7-6.7C488.1,364.1,485,361,480.9,361L480.9,361z M525.6,384.2c-2.1-3.1-5.7-4.6-9.8-4.6c-3.6,0-7.2,1.5-10.3,5.1
	l-0.5-4.1h-11.3v56.6l12.9-2.1v-13.4c2.1,0.5,4.1,1,5.7,1c3.1,0,8.2-1,11.8-4.6c3.6-3.6,5.1-9.8,5.1-17.5
	C529.7,392.9,528.2,387.8,525.6,384.2L525.6,384.2z M565.7,385.2c-3.1-3.6-7.2-5.7-12.3-5.7c-11.3,0-18,8.2-18,21.6
	c0,7.2,2.1,12.9,5.7,16.5c3.1,3.1,7.7,4.6,13.9,4.6c5.7,0,10.8-1.5,13.9-3.6l-1.5-8.7c-3.1,1.5-7.2,2.6-11.3,2.6
	c-2.6,0-4.1-0.5-5.7-1.5c-1.5-1-2.1-2.1-2.6-5.1h21.6c0-0.5,0-3.6,0-4.6C569.8,395,568.3,388.8,565.7,385.2L565.7,385.2z
	 M552.9,388.8c3.1,0,4.6,3.6,4.6,9.3h-9.8C548.2,392.4,549.8,388.8,552.9,388.8L552.9,388.8z M510.2,412.5c-1.5,0-2.6-0.5-3.6-1
	v-19.5c2.1-2.6,4.1-2.6,5.1-2.6c3.1,0,5.1,3.6,5.1,10.8c0,4.1-0.5,7.2-1.5,9.3C513.8,411.4,512.2,412.5,510.2,412.5L510.2,412.5z
	 M316.3,410.9c-2.1,0-3.1,0-4.6-1V396c2.1-2.1,4.1-4.1,6.7-4.1c3.6,0,5.7,3.1,5.7,8.7C324,407.8,321.4,410.9,316.3,410.9
	L316.3,410.9z M266.4,410.4c-3.6,0-6.2-2.6-6.2-8.7c0-6.7,3.1-10.3,7.2-10.3c2.6,0,4.1,0.5,6.2,1.5v13.4
	C271,408.9,269,410.4,266.4,410.4L266.4,410.4z M233.5,390.3c3.6,0,5.7,2.6,6.2,7.7h-12.3C227.8,392.9,230.4,390.3,233.5,390.3
	L233.5,390.3z M177.4,390.3c3.6,0,5.7,2.6,6.2,7.7h-12.3C171.8,392.9,174.3,390.3,177.4,390.3L177.4,390.3z M98.7,410.9
	c-4.6,0-7.2-4.1-7.2-9.8s2.6-9.8,7.2-9.8s7.2,4.1,7.2,9.8S103.4,410.9,98.7,410.9L98.7,410.9z M63.8,393.4h-3.6V379h4.1
	c5.7,0,8.2,2.6,8.2,7.2C72.5,391.4,69.4,393.4,63.8,393.4L63.8,393.4z"/>
</svg>
