<?xml version="1.0" encoding="utf-8"?>
<!-- Generator: Adobe Illustrator 15.0.0, SVG Export Plug-In . SVG Version: 6.00 Build 0)  -->
<!DOCTYPE svg PUBLIC "-//W3C//DTD SVG 1.1//EN" "http://www.w3.org/Graphics/SVG/1.1/DTD/svg11.dtd">
<svg version="1.1" id="Layer_1" xmlns="http://www.w3.org/2000/svg" xmlns:xlink="http://www.w3.org/1999/xlink" x="0px" y="0px"
	 width="46px" height="30px" viewBox="0 0 46 30" enable-background="new 0 0 46 30" xml:space="preserve">
<g>
	<path fill="#00589F" d="M46,28c0,1.1-0.9,2-2,2H2c-1.1,0-2-0.9-2-2V2c0-1.1,0.9-2,2-2h42c1.1,0,2,0.9,2,2V28z"/>
	<g>
		<polygon fill="#FFFFFF" points="17.568,19.476 19.087,10.548 21.517,10.548 19.996,19.476 		"/>
		<g>
			<path fill="#FFFFFF" d="M28.806,10.767c-0.48-0.181-1.235-0.375-2.177-0.375c-2.4,0-4.09,1.211-4.105,2.947
				c-0.014,1.283,1.207,1.999,2.128,2.426c0.946,0.438,1.264,0.717,1.26,1.107c-0.007,0.6-0.756,0.871-1.454,0.871
				c-0.972,0-1.488-0.135-2.286-0.467l-0.312-0.143l-0.341,2c0.566,0.249,1.616,0.465,2.706,0.475c2.554,0,4.21-1.196,4.229-3.05
				c0.01-1.016-0.637-1.789-2.038-2.426c-0.85-0.413-1.37-0.689-1.364-1.108c0-0.37,0.44-0.768,1.392-0.768
				c0.794-0.012,1.369,0.161,1.816,0.342l0.219,0.104L28.806,10.767z"/>
			<path fill="#FFFFFF" d="M35.033,10.556h-1.876c-0.582,0-1.017,0.159-1.272,0.74l-3.606,8.184h2.551c0,0,0.416-1.1,0.512-1.342
				c0.278,0,2.755,0.004,3.11,0.004c0.072,0.312,0.295,1.338,0.295,1.338H37L35.033,10.556z M32.039,16.312
				c0.201-0.515,0.968-2.496,0.968-2.496c-0.015,0.023,0.199-0.518,0.321-0.854l0.164,0.771c0,0,0.466,2.131,0.562,2.578H32.039z"/>
			<path fill="#FFFFFF" d="M15.531,10.554l-2.378,6.09l-0.254-1.238c-0.442-1.426-1.821-2.973-3.364-3.746l2.175,7.811l2.569-0.004
				l3.824-8.912H15.531z"/>
			<path fill="#F9A51A" d="M10.947,10.548H7.029L7,10.733c3.047,0.74,5.063,2.525,5.899,4.672l-0.851-4.104
				C11.901,10.736,11.475,10.567,10.947,10.548"/>
		</g>
	</g>
</g>
</svg>
